/* XPM */
static char *_2331db571c64f948be07b4cf9aa8f390k0wYwdycI8j6OSl[] = {
/* columns rows colors chars-per-pixel */
"64 64 229 2 ",
"   c #0C0701",
".  c #180E01",
"X  c #1C1101",
"o  c #201301",
"O  c #241501",
"+  c #251601",
"@  c #271701",
"#  c #291801",
"$  c #2B1901",
"%  c #2D1B01",
"&  c #2F1C01",
"*  c #311D01",
"=  c #331E01",
"-  c #351F01",
";  c #372001",
":  c #392201",
">  c #3B2301",
",  c #3D2401",
"<  c #3F2501",
"1  c #412601",
"2  c #432701",
"3  c #452801",
"4  c #472A01",
"5  c #492B02",
"6  c #4B2C02",
"7  c #4D2E02",
"8  c #4F2F02",
"9  c #513002",
"0  c #533102",
"q  c #553202",
"w  c #573302",
"e  c #593402",
"r  c #5B3602",
"t  c #5D3702",
"y  c #5F3802",
"u  c #613902",
"i  c #633A02",
"p  c #653B02",
"a  c #673D02",
"s  c #693E02",
"d  c #6B3F02",
"f  c #6C4002",
"g  c #6E4102",
"h  c #704202",
"j  c #724302",
"k  c #744402",
"l  c #764502",
"z  c #784602",
"x  c #7A4802",
"c  c #7C4902",
"v  c #7E4A02",
"b  c #804B02",
"n  c #824C02",
"m  c #844D02",
"M  c #864F02",
"N  c #885002",
"B  c #8A5102",
"V  c #8C5202",
"C  c #8E5302",
"Z  c #905503",
"A  c #925603",
"S  c #945703",
"D  c #965803",
"F  c #985903",
"G  c #9A5B03",
"H  c #9C5C03",
"J  c #9E5D03",
"K  c #A05E03",
"L  c #A25F03",
"P  c #A46003",
"I  c #A66203",
"U  c #A86303",
"Y  c #AA6403",
"T  c #AC6503",
"R  c #AE6603",
"E  c #B06703",
"W  c #B26903",
"Q  c #B36903",
"!  c #B56A03",
"~  c #B76B03",
"^  c #B96D03",
"/  c #BB6E03",
"(  c #BD6F03",
")  c #BF7003",
"_  c #C17103",
"`  c #C37203",
"'  c #C57403",
"]  c #C77503",
"[  c #C97603",
"{  c #CB7703",
"}  c #CD7803",
"|  c #CF7903",
" . c #D17B03",
".. c #D37C03",
"X. c #D57D03",
"o. c #D77E04",
"O. c #D98004",
"+. c #DB8104",
"@. c #DD8204",
"#. c #DF8304",
"$. c #E18404",
"%. c #E38504",
"&. c #E58704",
"*. c #E78804",
"=. c #E98904",
"-. c #EB8A04",
";. c #ED8B04",
":. c #EF8C04",
">. c #F18E04",
",. c #F38F04",
"<. c #F59004",
"1. c #F79104",
"2. c #F99204",
"3. c #FB9304",
"4. c #FC9405",
"5. c #FC9507",
"6. c #FC9609",
"7. c #FC970B",
"8. c #FC980D",
"9. c #FC990F",
"0. c #FC9911",
"q. c #FC9A13",
"w. c #FC9B15",
"e. c #FC9C17",
"r. c #FC9D19",
"t. c #FC9E1B",
"y. c #FC9E1D",
"u. c #FC9F1F",
"i. c #FCA021",
"p. c #FCA123",
"a. c #FCA225",
"s. c #FCA327",
"d. c #FCA329",
"f. c #FCA42A",
"g. c #FCA52C",
"h. c #FCA62E",
"j. c #FCA630",
"k. c #FCA732",
"l. c #FCA834",
"z. c #FCA936",
"x. c #FCAA38",
"c. c #FCAB3A",
"v. c #FCAB3C",
"b. c #FCAC3E",
"n. c #FCAD40",
"m. c #FCAE42",
"M. c #FCAF44",
"N. c #FCB046",
"B. c #FCB048",
"V. c #FCB14A",
"C. c #FCB24C",
"Z. c #FDB44E",
"A. c #FDB450",
"S. c #FDB552",
"D. c #FDB654",
"F. c #FDB756",
"G. c #FDB858",
"H. c #FDB95A",
"J. c #FDB95C",
"K. c #FDBA5E",
"L. c #FDBB60",
"P. c #FDBC62",
"I. c #FDBD64",
"U. c #FDBE66",
"Y. c #FDBE68",
"T. c #FDBF6A",
"R. c #FDC06C",
"E. c #FDC16E",
"W. c #FDC270",
"Q. c #FDC271",
"!. c #FDC373",
"~. c #FDC475",
"^. c #FDC577",
"/. c #FDC679",
"(. c #FDC67B",
"). c #FDC77D",
"_. c #FDC87F",
"`. c #FDC981",
"'. c #FDCA83",
"]. c #FDCB85",
"[. c #FDCB87",
"{. c #FDCC89",
"}. c #FDCD8B",
"|. c #FDCE8D",
" X c #FDCF8F",
".X c #FDD091",
"XX c #FDD193",
"oX c #FED295",
"OX c #FED397",
"+X c #FED499",
"@X c #FED49B",
"#X c #FED59D",
"$X c #FED69F",
"%X c #FED7A1",
"&X c #FED8A3",
"*X c #FED9A5",
"=X c #FED9A7",
"-X c #FEDAA9",
";X c #FEDBAB",
":X c #FEDCAD",
">X c #FEDDAF",
",X c #FEDEB1",
"<X c #FEDFB3",
"1X c #FEDFB5",
"2X c #FEE0B7",
"3X c #FEE1B8",
"4X c #FEE1BA",
"5X c #FEE2BC",
"6X c #FEE3BE",
"7X c #FEE4C0",
"8X c #FEE5C2",
"9X c #FEE6C4",
"0X c #FEE7C6",
"qX c #FEE7C8",
"wX c #FEE8CA",
"eX c #FEE9CC",
"rX c #FEEACE",
"tX c #FEEBD0",
"yX c #FEECD2",
"uX c #FEECD4",
"iX c #FEEED8",
"pX c #FEEFDA",
"aX c #FFF0DC",
"sX c #FFF1DE",
"dX c #FFF2E0",
"fX c #FFF3E2",
"gX c #FFF8EE",
"hX c #FFFAF2",
"jX c white",
/* pixels */
"&X`.K.T.(.OX=X|.A.x.G.A.p.q.v.U.L.W.%X[.K.[.3X=XL.Z.%X>XU.l.V.(.+X_.b.j.G.N.q.j.E.W.{.,X.X`..X(.T.|.>XE.D.(.P.K.C.x.V.P.L.).{.r.",
"[.D.b.U..X%X=X(.x.f.G.s.-.`.iX>X[.{.#X^.D.)..XE.D.(.%X`.D.U.#X>X[.P.T.E.(.8.U ^.dX;X7X6X).G.E.[.W._..XA.G.#X#X+XT.T.`..X.XOX[.5.",
"3.*.-.e.p.7.q.+.R [ >.H F [..X8.-.>.5.X.#.y.q...$.q.q.;. .:.h.h.8.5.q.5.s.R N &X1Xw.5.7.;.X.w.x.p.d.h.7.1.8.s.r.*.8.V.V.d.y.8.N ",
"8.q.f.l.y.7.p.&._ r.s.F A `.^.#.o.1.s.q.p.b.r.:.y.h.8.;.-.r.b.j.q.8.3.1.q.V N #XOX| R ;.7.>.f.l.w.-. .$.1.q.d.1.] 1.l.p.q.s.;.r ",
"5.7.8.+._ 3.d.:.1.A.s.F _ ;X`.3.q.f.l.p.s.p.5.1.r.p.1.| _ 3.d.w.3.1.-.5.3.s z {.[._ ~ :.>.$.7.y.7...] 3.q.8.3.] [ 5.7.;.7.r.&.p ",
">.1.3./ _ j.l.1.5.y.+.p H {..Xy.q.7.7.7.3.>.#.~ X.5. .I _ 8.q.*.| ( [ 3.3.a v |._...( ..*.1.q.7. .] 3.q.X.| ..| 1.q.1.w.q.-.$.A ",
"A v h h K [ H h N H f . a x.p.V f s N I K M y r Y ] k x / / I F b k n F V . q v.r.b t A _ ~ K h 5 k Y N h R U v V Q _ ] E H K u ",
"n q 3 z z 7 9 7 V H r q / y.o.a 2 9 M R I u 2 M / H f D F a V E N n v N z : M q.#.k t U ~ N v r r z M b A [ H q f Q E h D R H h ",
"r.f.C.|.G.j.L.L.`.E.m.^.%XOXOX_.W.|.>X;X^.x.M.W.y./ 3.D.M.A..X{.D.D.T.{..X_.#X0X3XOX|.+XT.U.+X#X|.W.b.y.h.T.D.m.^.&XW.N.`.U.N.C.",
"|.7X%X;X{.|.%X+X#X+X{.#X(.D.OX1X;X>X;XOX(.T.(.[.>.~ [.iX_._.+X_.U._.OX|.|.=X;X=X,X>X;X{.^.;XrX6X=X_.j.8.`.2X(.W.[.#XW.G.^.T.W.|.",
"+X>Xf.q.p.j.s.j.m.M.y.7. .+.x.b.r.3.&.>.8.7.5.:.k S 6XqXr.7.r.$.#.w.&.R $.p.5.>.q.8.3.;.w.b.d.7.:.| b U _.E.5.+._ q.5. .>.8.p.h.",
"`.`.5.8.j.s.8.w.r.e.q.3.#.8.V.x.r.5.>.q.7.$.:.| 7 M +X|.1.8.y.-.w.f.Q U e.l.8.7.w.7.3.1.5.>.-.3.-.Q k _ [.E.r.;.;.G.l.&.3.8.e.e.",
"+XW.#.1.s.r.>.$.#.-.3.-.+.7.d.r.3.>.3.q.;.+.7.>.h n ^.|.5.+.o.;.l.h.-.p.G.j.#._ $.#.] X.#.) -.r.1.&.I R U.W.r.1.y.D.h.:.q.v.x.q.",
"T.K.| o.3.-.X.+.;.>.3.3.7.s.e...R ) *.;.+.3.j.8.y u _.=X5.| [ +.1.3.8.j.M.7.R ~ *...~ o.&...p.v.5.1.k r m.A.#.-.7.p.e.&.;.p.r.3.",
"N.l.V h F N v V D H R R A V M s t D ~ M s A F z   6 N.v./ H x M K Y A h M f p _ | H A Q / D ] ] M k   q G.d.I I R U N s a N U Y ",
"L.3.q < f h a r r k V p = - a v v / Q r 3 r 3 7 3 b 3.-.Q u @ f I U y # 6 2 u _ U k z H H y V h < 7 # R A.*.k a h 9 & 5 9 h Q b ",
"+Xf.e.V.U.E.D.D._..X`.d.:.C.+X{.L.^.U.p.Z.`.D.K.(.U.W.^.D.e.j.{.`.T.v.V.T.8.#.G.(.K._.#X(.D.^.V.b.Z.m.+X>XD.s.D.^.l.v.`.W.T._.-.",
"[.K.=X3X#X>X,XwX0X.X[.s.7.,X0X{.`.OX+X_.7XiX).|.0X+XOX;X.X.X,X6X+X.X|.=X&Xy.>.>XuXOX;X.X^.^.T.(.2X#X;X0X;X{.(.0X0X^.&XrX1XOXOXw.",
"l.d.m.s.5.y.m.m.1.~ X.k t x.s.+.w.q.p.e.h.e.] $.p.r.p.h.l.V.j.5.>.w.f.y.3.n K {.%Xs.1.~ ( -.+.j.A.y.j.x.j.d.y.h.5.>.s.h.w.+.>.] ",
"e.X.o.>.>.5.p.q.&.+.-.x v (.T.e.j.7.3.*.#.-._ _ 1.p.8.| #.7.3.&.X.>.q.>.) 7 z [.,Xh.1. .7.N.h.h.7.#.$.3.8.3.1.| ~ >.8.3.;.| 7.| ",
"+.R ..q.8.7.w.8.5.3.-.V U ^.U.p.l.r.7.:.>.r.3.q.m.G.s.[ $.7.>.&.X.#.3...( V U #X=Xe.5.-.;.8.w.o.) #.+.5.q.-.:.]  .y.3.o.#.$.q.Q ",
"[ R 1.r.-.#.$.-.5.3.$.N F A.L.p.8.*.+.+.:.r.s.y.s.p.1.Q X.q.1.#.[ #.p.3.5.) H #X&X8.;.[ Y #.e._  .d.s.x.f.1.7. .] 1.#. .3.>.:.M ",
"a z _ I n M v A I R I u H K.C.o.R V A F F R ~ N x V I v F _ V v I ] $._ ] f u E.D.Q N k V  .-.Q ..1.| / K V H h y D I Y ..) R t ",
"# s V y a s q t a N N r I p.] z S n V I M n h 7 7 s H A n v 7 u E H f f v q K C.;.f r a h V ~ E Q N 7 : = = 9 2 6 n R ~ I x 9 3 ",
"y.W.K.m.E.`.K.x.N.E.V.q.s.M.b.A.G.r.j.U.G.K.A.s.$.[ j.m.7.x.A.U.+XE.V.U.L.V.^.=XT.M.y.7.w.L.|.K.m.p.| U -.p.C.G.K.).=X.XL.G.V.K.",
"#XsX`.=XiXsX,X=XrXrXOXT.b.A.=X1X|.[.;X,XOX{.W.V.8.q.OX>X(.,X3X.X>X;X;X,X#X[.[..X{.`.A.G.=XsX1XG.G.E.:.] #XtX=X,X%X>XqX|.V.P.`.+X",
"W.(.8.C.Z.d.q.f.V.v.f.w.$.q.U.v.y.V.K.m.y.5.+...R / T.+Xb.r.w.1.p.l.q.3.-.;.7.p.w.-.-.f.Z.l.$.Q -.p.v h |.(.8.l.q.1.e.#.~ $.8.5.",
"_.OXh.b.p.5.5.3.1.5.8.7.:.s.L.d.:.1.>.>.3.$.| 1.K M (.,Xq...3.8.r.p.8.3.&.7.h.h.3.#.3.3.] | X.o.x.m.f 9 T.E.p.D.e.-.5.$.>.v.A.p.",
"U.%Xq.#.-.5.5.3.3.7.>.&.1.f.m.7.+.#.$.-.&.~ _ 8.D H 6X,X7.-.5.r.3.3.p.r.1.w.f.s.5.:.q.-.) q.l.f.A.j.y 7 (.`.p.x.7.3.7.:.8.p.s.>.",
"P.;X$.H #.3.$.:.7.3.#.+.8.y.7.$.$.3.1.>.$.] :.j.K I =X(.#.|  .;.#.o.7.>.+.5.r.q.1.5.r.5.8.D.A.p.1.$.9 r .X^.1.8.+.*.*.1.y.:.&.+.",
"C.G.M h Q U M F U F F R [ / A v F R U Q Y H / $.f r r.-.v S H ~ Q F / H A _ [ ~ R ) ~ I _ -.#.Q k N : r (.K...Q N K F ~ ..D S Y ",
">.( 5 f v v z f q - : 3 7 < 2 9 s N M v s q s K r 2 [ I q v A F N V F 9 t b N V V F q & u N M r # 7 < z A.r.s 5 k I M s h 3 2 u ",
"{.W.D.D.N.D.A.v.h.h.s.#.R >.D.L.Z.Z.l.d.x.V.U.{.V.y.D.m.p.G.G.y.r.N.e.>.A.v.r.h.l.j.&.#.b.G.h.3.#.q.m.W.&XZ.-.:.s.Z.x.s.M.d.7.1.",
";X=X[.`.=X;X%X>X>X6X3XA.l.dXjX7X#X|.|.OX&X>X6X,XE.x.K.|.&X7X+XW.+X+XU..XyXU.p.^.(.D.m.U.6X0X|.P.A..XsXiX,XOX.XU.W.3X2XOX#X(.T.x.",
"8.1.&.d.D.l.p.m.v.j.h.Y Y OX%Xs.y.w.f.s.-.>.q.>.+._ $.d.N.m.f.m.Z.s.7.s.l.K k l.Z.q.3.3.v.C.f.1.1.m.P.m.d.x.b.q.m.|.U.d.7.-.3.U ",
"8.8.r.C.M.5.$.8.q.+._ 9 p ^.`.3.3.*.>.:.[ -.;.+.3.#.+.p.h.r.s.j.1.....7.j.N t D.`.h.5.>.d.f.5.;.8.r.q.7.1.5.5.5.d.x.r.5.;.+.*.M ",
"5.8.w.h.r.1.;.e.3.K R H | ;X`.5.5.3.w.r.8.p.>.:.s.-.q.U.l.3.r.8.Q R >.m.m.v q ^.+Xd.8.r.l.s.7.>.#.) [ #.-.8.7.3.7.7.5.3.+._ +.F ",
"1.8.p.s.8.3.5.8.:...p.#.K A.U.q.1.;.5.8.8.r.w.l.m.$.5.M.p.8.l.1.R ..l.h.[ = 6 E.OXp.&.+.*.;.+.E ~ | $.;.w.y.-.o.&.>.1.3.#.o.-.Y ",
"A Q o.o.| | [ R V F +.k 3 y.j./ F F _ [ Q _ | $. .A I ..[ | $./ R *.5.I y < S T.T.[ f x H I b k ] :.-.1.y.&.F n D Q ) ] ~ Q [ U ",
"2 y u s z M x 9 & < h 2 s y.o.9 t A ~ v = u t : 7 u h f 7 p V f t b s 3 v R o.y.>.r # s H I M b / U h h F N u y V K H A s 3 f S ",
"#.x.l.j.l.h.q.5.7.l.W.h.8.D.d.1.V.L.d./ Q x.y.&.1.+.*.y.j.C.x.*.&.q.3.r.A.N.v.V.x.1.1.b.T.L.s.d.G.d.R M  .5.5.f.G.V.x.f.5.] $.j.",
"^.tX.X#X&X[.E.K.^.>XtX+X`.>X#X,XdX>Xm.y.|.dX|.E.M.5.P.3X1X.XL.C.^.+X;X>X|.(.{.(.`.|.+X0X1X`.E..X2X{.5.X.^.7X>X;X+X^.W.[.(.D.(.7X",
"K.{.w.x.m.y.1.[ >.h.s.7.e.A.P.W.W.b.8.b..XT.8.-.K I G.`.f.1.7.j.M.M.K.D.j.M.A.s.d.f.w.j.s.p.b.m.l.s.H F ;XgX).x.r.8.y.l.p.7.l.W.",
"v.^.s.Z.x.8. .E ;.q.;.+.$.y.d.p.y.5.>.p.m.y.3.-.V D E.OXj.r.j.V.v.p.p.w.3.7.q.8.3.o.| 3.5.r.s.8.1.o.t V 7X7Xp.3.3.1.7.1.+.$.q.h.",
"j.{.V.m.r.*./ +.p.r.7.q.p.x.p.5.5.1.+...:.5.7.1.N V ^.OXy.3.w.s.q.-.;.;. .[ >.y.1.-.f.s.1.e.p.7. .A r Q |.U.*.3.3.1.3.:.-.w.f.p.",
"x.&Xm.8.:.-.*.q.8.1.h.j.r.r.8.5.5.>.| ) 1.y.7.*.h A +X&X3.[ -.3.;.#.$.-.-.3.s.s.3.3.f.8.q.N.h.-.[ / I | D.l.;.*._ #.7.e.y.j.d.7.",
"G.[.>.[ / ~ _ ) U _ #.~ ~ | ( ( ( F v ~ q.r...R 9 n (.T.] I ) [ Q ~ R ~ #.-.&.~ N F ~ / *.8.] F ] ;.Q ( l.p.:./ N | $.| [ [ ) Q ",
"y.-.M b v k s 3 6 f u 2 v h # = < o # V ~ V 3 @   s y.+.q : f A u f 7 q A a 2 # 2 S R D N s @ - A R t h | / Y N f D a = = % : t ",
"D.m.7.+.X.1.$.) -.5.>.&.3.;.+.5.q.;.>.l.r.] S H ) r.L.p.....j.M.3.8.&.3.y.Q M I w.W.P.j.r.&.| q.V.s._ $.v.C.v.3.#.1.&.#.>.+.;.7.",
"`.+X[.D.U.T.x.C.>X2X,XW.x.&X0X+X;XOX`.;X&XW.L.|.+X#X;X%X|.OX3X%XT.P.(.OX(.8.1.`.hXsX+XW.W.P.W.,X0X{.V.E.>X0X+XG.E.#X#XOX.X`.3X`.",
"8.p.V.C.G.h.7.x.T.V.p./ Q OX[.:.j.b.r.x.C.m.v.j.v.W.[.W.D.C.b.s.-.X.r.h.p. ...2XsXA.y.r.p.5.5.V.l.1.3.s.D.Z.w.>.h.D.v.8.7.x.A.+.",
"e.r.m.y.3.5.p.h.r.&.K 7 b [.(.1.M.h.#.>.r.r.>.] q.G.v.r.7.8.7.1.$.+.3.p.j.] ] 1XOX&.o.1.7.-.3.j.:.| 5.p.x.y.*.&.e.l.w.#.3.l.5.A ",
"h.>.:.| ] 7.7...o.+.+.~ #.3X#Xr.s.5.-.7.h.r.&.>.m.C.>.+.$.&.1.7.w.8.r.V.h.A F (.W.-.#.1.q.-.#.;.$.p.V.v.d.q.5.8.x.Z.e.| #.e.w.E ",
"8./ ~ #.-.1.$.( +.1.r. ._ (.C.| #.#.3.y.p.;.&.5.1.1.;.;.>.*.7.w.8.5.y.h.:.k b v.K.5.$.8.j.7.*.3.p.V.x.e.8.8.1.*.r.p.+.R ] 7.s.Q ",
"[ A Q -.[ [ >.>.7.y.p.N q r.3._ #.] o.;.$.X.3.;.R / [ ~ ] *.8.>.| | -.-.] v A l.G.3.+.7.q.../ ;.p.y.X.K Q _ /  .5.&.U ( 1.y.8.N ",
"= < N N x H Q F a x F 2 7 7.-.Q ~ N f n D H Q V r s a r v N n h 7 < u t 9 s K :.o.b h b q @ @ b I V 7 X 9 u s F K r < h v h 9 o ",
"D o.-.#.d.p.7.&.Q $.5.[ -.E.G.y.f.q._ +.-.$.&.X.Q Y [ 1.r.:.#.] Y Y o.[ #.p.p.p.w.5.1._ v N [ v.y.+.S p +.7.&.$.] K X.3. .R ~ ] ",
"[.>XK.W.,X`.P.).#X0X%XC.[.sX3X.X,X=XE.{.OX.X(.V.-. .A.OX%XOX[.L.T.|.%X=X;X=X^.E.#X0X2XT.l.D.=XsX|.T.r.>.>X7XT.T.W.`.6X7X#X`.=X7X",
"|.&Xx.x.P.l.3.N.T.D.j.h.)._.m.M.K.D.x.C.T.T.y.) s n T.>X^.A.r.>.h.U.E.^.m.h.p.s.C.P.D.x.l.D.[.[.N.v.] A P.^.x.P.E.W.U.V.x.v.^.{.",
"K.%Xq.7.A.p.&.x.v.>. .3.l.r.8.w.r.8.1.3.q.:.Y H x Y &XOXr.1.] / w.G.m.r.$.-.1.q.h.p.1.>.q.l.N.V.f.>.6 = h.P.j.m.x.f.1._ ( -.y.p.",
"f.[.*.>.Z.x.r.V.l.&./ ;.r.q.e.;.-.;.$.:.3./ F *.| $.+XK.3.1.o.8.G.T.y.+.X.-.>.e.q.*.#.>.3.3.q.h.r._ = f [.,Xm.y.e.8.[ V R 3.>.-.",
"s.L.-.>.d.h.w.r.-._ #.h.v.q.o.Y +.5.>.q.q.[ *.D.>. .W.E.m.e.1.V.K.M.1.X.>.1.8.p.+.] 7.r.5.;.3.5.3._ 7 A ;X,X8.#.-.5._ I 8.G.p.7.",
"x.G.w.5.3.-.[ Q v N +.w.8.| A A o.>.$.*.| U [ 7.n t d.U.j.>.>.s.5.;.| [ 3.5.:.| F | 3._ ~ / / ..$.H 9 ] 3XT.Q Q [ +.U I y.V.5.X.",
"p.e.*.( R E V f < r D N q - r v v k 9 = @ @ = y # : -.*.M u p p r k k b A s ; < z I a : k v z E M @ ; U 8.H 2 y s n a 2 v N s s "
};
