/* XPM */
static char *ab840ff26b084d8fe587089bbcd04c43DiW0ZaaMBT8EjnM1[] = {
/* columns rows colors chars-per-pixel */
"64 64 212 2 ",
"   c black",
".  c #020202",
"X  c #040404",
"o  c #060606",
"O  c #070707",
"+  c #090909",
"@  c #0B0B0B",
"#  c gray5",
"$  c gray6",
"%  c #101010",
"&  c gray7",
"*  c gray8",
"=  c #161616",
"-  c gray9",
";  c #191919",
":  c #1B1B1B",
">  c gray11",
",  c #1E1E1E",
"<  c #202020",
"1  c #222222",
"2  c #232323",
"3  c #252525",
"4  c gray15",
"5  c #282828",
"6  c #2A2A2A",
"7  c gray17",
"8  c #2D2D2D",
"9  c gray18",
"0  c gray19",
"q  c #323232",
"w  c gray20",
"e  c #353535",
"r  c gray21",
"t  c gray22",
"y  c #393939",
"u  c gray23",
"i  c #3C3C3C",
"p  c #3E3E3E",
"a  c #3F3F3F",
"s  c #414141",
"d  c gray26",
"f  c #434343",
"g  c gray27",
"h  c #464646",
"j  c #484848",
"k  c #494949",
"l  c gray29",
"z  c #4C4C4C",
"x  c gray30",
"c  c #4E4E4E",
"v  c #505050",
"b  c #515151",
"n  c gray32",
"m  c gray33",
"M  c #555555",
"N  c #565656",
"B  c gray34",
"V  c gray35",
"C  c #5A5A5A",
"Z  c #5B5B5B",
"A  c gray36",
"S  c gray37",
"D  c #5F5F5F",
"F  c #606060",
"G  c gray38",
"H  c #626262",
"J  c gray39",
"K  c #656565",
"L  c gray40",
"P  c #676767",
"I  c #686868",
"U  c DimGray",
"Y  c #6A6A6A",
"T  c gray42",
"R  c #6C6C6C",
"E  c #6D6D6D",
"W  c gray43",
"Q  c #6F6F6F",
"!  c gray44",
"~  c #717171",
"^  c #727272",
"/  c gray45",
"(  c #747474",
")  c gray46",
"_  c #767676",
"`  c #777777",
"'  c gray47",
"]  c #797979",
"[  c gray48",
"{  c #7B7B7B",
"}  c #7C7C7C",
"|  c gray49",
" . c #7E7E7E",
".. c gray50",
"X. c #808080",
"o. c #818181",
"O. c gray51",
"+. c #838383",
"@. c #848484",
"#. c gray52",
"$. c #868686",
"%. c gray53",
"&. c #888888",
"*. c #898989",
"=. c gray54",
"-. c #8B8B8B",
";. c gray55",
":. c #8D8D8D",
">. c #8E8E8E",
",. c gray56",
"<. c #909090",
"1. c gray57",
"2. c #929292",
"3. c #939393",
"4. c gray58",
"5. c #959595",
"6. c gray59",
"7. c #979797",
"8. c #989898",
"9. c gray60",
"0. c #9A9A9A",
"q. c #9B9B9B",
"w. c gray61",
"e. c #9D9D9D",
"r. c gray62",
"t. c #9F9F9F",
"y. c #A0A0A0",
"u. c gray63",
"i. c #A2A2A2",
"p. c gray64",
"a. c #A4A4A4",
"s. c #A5A5A5",
"d. c gray65",
"f. c #A7A7A7",
"g. c gray66",
"h. c #A9A9A9",
"j. c #AAAAAA",
"k. c gray67",
"l. c #ACACAC",
"z. c gray68",
"x. c #AEAEAE",
"c. c #AFAFAF",
"v. c gray69",
"b. c #B1B1B1",
"n. c #B2B2B2",
"m. c gray70",
"M. c #B4B4B4",
"N. c gray71",
"B. c #B6B6B6",
"V. c #B7B7B7",
"C. c gray72",
"Z. c #B9B9B9",
"A. c gray73",
"S. c #BBBBBB",
"D. c #BCBCBC",
"F. c gray74",
"G. c gray",
"H. c gray75",
"J. c #C0C0C0",
"K. c #C1C1C1",
"L. c gray76",
"P. c #C3C3C3",
"I. c gray77",
"U. c #C5C5C5",
"Y. c #C6C6C6",
"T. c gray78",
"R. c #C8C8C8",
"E. c gray79",
"W. c #CACACA",
"Q. c #CBCBCB",
"!. c gray80",
"~. c #CDCDCD",
"^. c #CECECE",
"/. c gray81",
"(. c #D0D0D0",
"). c gray82",
"_. c #D2D2D2",
"`. c LightGray",
"'. c gray83",
"]. c #D5D5D5",
"[. c gray84",
"{. c #D7D7D7",
"}. c #D8D8D8",
"|. c gray85",
" X c #DADADA",
".X c gray86",
"XX c gainsboro",
"oX c #DDDDDD",
"OX c gray87",
"+X c #DFDFDF",
"@X c gray88",
"#X c #E1E1E1",
"$X c #E2E2E2",
"%X c gray89",
"&X c #E4E4E4",
"*X c gray90",
"=X c #E6E6E6",
"-X c #E7E7E7",
";X c gray91",
":X c #E9E9E9",
">X c #EAEAEA",
",X c gray92",
"<X c #ECECEC",
"1X c gray93",
"2X c #EEEEEE",
"3X c #EFEFEF",
"4X c gray94",
"5X c #F1F1F1",
"6X c gray95",
"7X c #F3F3F3",
"8X c #F4F4F4",
"9X c gray96",
/* pixels */
"9X9X7X9X9X9X9X9X;X).<X;Xv.a.].9X9X9X9X9X7X9X9X9X9X;X9X9X9X!.&X9X9X9X XR.7X+Xp.R.9X9X9X9X9X9X9X9X9X9X9X9X<X9X9X7X&X).$X9X9X9X9Xl.",
"9X<X].9X9X9X9X9X).J.<XC.o.9X9X9X9X9X9X9X<X9X9X9X<X9X9X9X<X9X9X9X9X9X9X9X9Xr.$ 9X9X9X9X9X9X7X9X9X9X9X9X;X7X9X9X9X9X9X9X9X9X9X9X1.",
"1.{  .g.V.6.p.E , M @.    9X9Xr. .@.1.K ~ v.a.J ) p.p.o.Z o.T.T.q.6.a.6.C.;   9X9Xa.1.q.o.K a.!.V.H.T.q.-.r.V.l.{ p.$X$XH.v.r.  ",
"q.p.J.!.v.q.C.{ j g.C.    9X9XE K ,.H.p.V. Xl.@.v.T.r.o. .l. XR.a.r.,.,.a.    9X9XM - o.q.@.H.).a. .A ) -.p.H.-.b -.!.V.p.C. .  ",
"6.q.r.T f ,.H.@.-.;XH.  j 9X9X,.p.J.R.V.C.V.6.-.l.V.-.M f ,.H.a.,.-. .1.1.    9X9Xj 6 @.@.) q.v.q.J z 1.a.r.,.j b 6.q.o.q.l.{   ",
"@.,.,.u f R.!.,.1.V.T     9X9Xv.p.q.q.6.,.@.E 0 J 6.A + f q.a.{ Z i M 1.1.    9X9XJ u A { -.p.6.A z 1.p.J Z A M -.p.,.a.a.{ )   ",
"          b               ).V.        + o       - z     0 e o                 ].l.      g 8         -     1 $     4 j z 4       ",
"                        e l.K         , +       i             1               p.~     % e                 b       6 ,     -     ",
"g.J.&X9X<XR.9X9X9X9X+X9X9X9X9X9X9X9X9X9X9X).+X9Xv.0 1.<X+X;X9X9X<X<X9X9X9X9X9X9X9X9X9X9X9X9X9X9X9X9X Xv.T.9X<X X9X9X9X$X9X9X$X&X",
"9X9X9X9X9X9X9X9X9X9X9X9X9X<X9X9X9X9X9X9X9X9X9X9X-.6 9X9X9X9X9X9X9X9X9X9X9X9X9X9X9X9X9X9X9X9X9X9X9X9XR.r.9X9X9X9X9X9X9X<X9X9X9X9X",
"9X9XJ.a.V.R.C.R. X+Xv.6.Z T ].].g.,.{ @.r.q.6.@.    9X9Xl.6.l.~ E a.{ 1 ~ V.1.-.p.r.,.o.a. XH.q.o.M   % 9X9X6.E f p.1.A @.r.V.T.",
"9X9X1.p.R.C.q.a.g.g.p.1.E r.$X).l.1.-.r.q.) o.Z     9X9X-.r.v. .a.J.6 $ g.).q.6.a.q.,.,.6.@. .,. .8   f 9X9Xl.o.o.<X!.) ,.r.g.g.",
"9X9XE -.H.g.@.~ ~  .,. .K q.H.l.1.-.1.a.o.K q.-.    9X9X1.K K o.!.T. .V.<XR.~ j ~ ~ z K E f { l.,.{ + , 9X9Xl.,.v.<XT.o.p.].).p.",
"9X7XA K ,. .J E o.@.,.,.q.C.a.A ; f { o.K ,.T.r.    9X9X1.Z M T ,.1.p.R.+Xq.; 8  .J 0 K { J V.].6.-.     X;X~  .q.V.g.) o.V.l.,.",
"+X!.                , ;             6               $X].e       o -           f A     6 u   z j         7XH.o $ ; $         - ; ",
"9X1.                              u 4               ,. .6       + %           g -                     ; ;X{                 6   ",
"9XH.g.$X9X9X<X<X9X9X9XH.o.&X9X9X9X9X9XV.;X9X<X7X9X9X9X9X;Xa.R.9X9X9X].$X9Xr.E 7X9X7X9X9X9X<X9X$X].&X X9X9X<XC.<X9X!.].9X9X9X9X .",
"9X7X9X9X9X9X9X9X9X9X9XC.6.9X9X9X9X9X9X9X9X9X9X9X9X9X9X9X9X9X9X9X9X9X9X9X9XV.@.9X9X9X9X9X9X9X9X9X9X9X9X9X9X9X9X9X9X9X9X9X9X9X9Xa.",
").H. XH.6.v.+X+X-.0 J     ).C.T a.a.V.g.J.g.z ) C.l.C.T.!.&XR.6.@.g.H.v.,.    9X9XC.-.8 u { K T.;Xv.R.).R.H.V.T.6.@.H.T.a.T @.j ",
"g.J K @.-.6.V.p.{ E  .    9X9Xg.R.q.,.{ ~  .j j -.V.r.M E 6.,.) K @.p.@.i     9X9XJ.,.A 6.$XT.T.q.E ) ,.r.,.,.Z 0 @.r.1.o.Z 6.A ",
"T ; J a.r.6.a.r.1.,. .  $ 9X9XV.).l.q.@.-.g.1.p. X7XH.b ~ 6.@.) J E ,.A u   % 9X9Xg.1.o.o.r.a.K f ~ E 1.a. .@.z J V.,.K E ~ p.4 ",
"b , ,.g. .~ ~  .1.,.)     ;X9XV.r.{ T T o.l.C.v.C.C.-.1 J a.-.E M E V.,.1.f   9X9Xp.o.M - E g.f A H.C.).H.,.q.A b -.~ A 1.-.@.  ",
"    j o         + ; $     7X&XK ;         1 8       o     g     + z ) g z     9X<X6       A  .4 J ,.A e             + ; J f ;   ",
"                        + V.z         +                         1             &Xo.          0 1 6                   ; 6 +       ",
"v.9X7X X9X9X7X).$X9X$Xp.C.+X X<X<Xl.R.9X7X7X;XC.~ M R. Xq.).;X9X9X9X&X9X9X$X9X9X9X+XV.q.g.9X9X9X+XV.Z % { C.&X7X7X9X9X9X9X<X$X9X",
"9X9X9X9X9X9X9X9X9X9X9X9X].;X9X9X9X9X9X9X9X9X9X$Xr.p.9X9X9X9X9X9X9X9X9X9X9X9X9X9X9X9X;X<X9X9X9X7X<X9Xo.z 9X9X9X9X9X9X9X9X&X9X9X9X",
"9X9Xr.&X&XH.p.J.$X].J.a.~ a.9X].v.&X7X Xv.1.K A , e 9X9X].l.a.-.V.R.a.,.{ o.q.C.a. . .H.&X!.~ 4  .V.    9X9Xr.R.p.,.g.~ 8 ~ r.6.",
"9X9XT. XV.1.1.1.-.1.r.q.o.C.9XH.o.-.o.@.1.~ A -.    9X9Xa.J ,.r.v.V.q.,.) q.T.J.1.~ ,.1.j Z J K ). X    9X9XC.<Xg. .6.) @.].;XV.",
"9X9Xp.E { 1.1.,.1.6.@.) -.J. Xq.T ~ )  .{ 0 g r.    9X9Xq.{ 6.l.1.1.V.g.-.a.J.H.1.o.p. .i p.!.J.;XR.    9X9XV.).q.,.q.o.r.V.H.@.",
"9X9X~   E ,.) o.6.,.~ E r.v.q.~ ) ,.,.-.) z @.R.o + 9X9XE Z A o.E K q.-.T 1.l.p.-.1.l.1.q.<X;XV.-.)     9X9X-.r.T {  .-.v.o.{ T ",
"&X7X    4 $     -     , b e       , $ 1 -   0 ~     l. .      0 6   i     g b 6 , f 0 $ f { E 4         9X9XJ 6       8 A     - ",
"@.i                                           o     b +                                                 ;Xl.      $             ",
"9X9X<X<X$X<X<X].T.J.H.E 1 -.<X9X&X&X!.H.].$X9X9X&Xl.<X XV.<X<Xv.l.$Xg.@.;X].l.T.).R.) E  X<XJ.,.~ p. X9X9X&X .o.C.&X).C.+XJ.6.-.",
"9X9X9X9X9X9X9X9X9X9X9X;X!.9X9X9X9X9X9X9X9X9X9X9X9X).7X9X9X9X9X9X9X9X9X9X9X9XV.9X9X<X+X9X9X9X9X9X;X9X9X9X9X9X9X9X9X9X9X9X9X9X9X).",
"r.,.{ H.<X!.V.+X].R.T.- % 9X9XH.v.a.J.C. .@.a.@.T j ) J.$X+XJ.+X&XC.q.H.!.    !.&Xp.,.,.].&XJ.-.-. X9X XH.].].a. X9X9XH.q. .,.- ",
"r.p.l.&X+X6.) r.p.K g     9X9X,.,.{ @.o.b  .o.T 1.E T V.T.g.C.R.-.A J q.R.    <X9XJ.6.-.H.J.1.o.r.l.p.q.,.1.6.6.H.).l.6.o.E {   ",
"6.r.a.J.l.-.o.g.,.  ;   A 9X9X6.6.,.a.l.r.V.-.o.H. .a.9X).,.l.q.4 - @. X+X    9X9XH.r.l.).C.q.@.~ f b E  .r.q.1.q.q.1.1.T g E   ",
"-.r.V.C.r.,.1.r.o.J V.E   ;X9Xp.,.o.1.r.r.l.a.!. X) 6.+XV.r.!.-., J !.T.M     9X9XV.{ T { o.K 1 8 M ~ o.g.v. .K ) -.,.,.~ K { - ",
"  6 K K M M M ,     T     V.R.u     j M 6 f M ~ A   o A M Z ~ e ; { 1.$       9X9XM       o     j @.{ ,.v.{       4 f z 0 6 M $ ",
"                          v.K       6                                     ; K V.@.        +     e %                             ",
"E ).!.R.!.T.a.1.q.!.9XT.r.<XH.-.$X9XH.e 6 ).v.) -.T { v.R.&X).{ { p.,.l.;X$X].$X].-.-.].9X9XH.H.7XH.;   A 1.1.H.<X&X).J.1.z ) R.",
"9X9X9X9X9X9X9X7X9X9X9X9X9X9X9X9X9X9X Xv.9X9X9X9X+X1.9X9X9X9X9X&X9X9X9X9X9X9X9X9X9X9X9X9X9X9X9X9X9X9X6.K 9X9X9X9X9X9X9X9X9X<X9X9X",
"7X9Xa.). Xv.-.b -.J.C.q.g.;X9X9X9X Xr.].9X9Xr. .o + 7X9XH.-.q.R.+X+X7X<XR.+X;XC.H.J.a.R.C.C. X X).H.    9X9X9X].l.p.v.!.V.q.).9X",
"].9XC.&X).r.A 1 o.p.o.T ) v.H.V.v.1.-.C. Xv.,. .    9X9XR.l.!.$X].V.V.g.1.q.p.r.,.K A ,.6.l.C.r.-.K     9X9XV.,.,.,.6.,.K ) a.J.",
"R.9X$X Xl.{ u T C.g.q.a.C.).V.1.1.-.T J o.1.6.-.    9X9Xv.1.a.C.a. .o.o.A b @.l.-.o.J.C.-.g.V.q.A     4 9X9X{ ,.1.-.,.@. .a.J.V.",
"].9X Xr.o.{ { p.q.-.J.R.l.g.r.1.1.@.Z f -.l.q.{     9X9X,.M { 1.o.E ~  . .,.C.H.,.1.J.r.a.$XJ.o.b u o A <X!. .{ g ~ q.g.v.R.H.q.",
"7X9X@.M u 6 f i % f E 6 6 M i i u     8 a.g.J ,     9X9Xj + f b 6 0 , 6 ~  .) 0     0 e { r.z   z o.6 i !.V.@.u   Z ~ Z M b i 6 ",
"v.o.                                    0           v.K                             ,             -     A e %                   ",
"<X Xq.T J ,.) i  .6.@.{ 1.o.T 1.p.o.@.!.g.z     f l.9XC.J J R.+X1.q.{ ,.V.6   o a.9X9XR.g.{ Z p.$XC.f ) ].&X].,.E ,.) E @.T o.6.",
"9X9X9X<X9X9X).&X9X9X9X9X).9X9X9X9X9X9X9X9X9X9X9X9X9X9X9X9X9X9X9X9X9X9X9X9Xp.-.9X9X9X9X9X9X9X9X9X9X9X&X9X9X9X9X7X9X9X9X9X9X9X9X9X",
"r.C.&X&X7XJ.q.).9X$XV.e 4 9X9Xo.R. Xg.).&X+X].R.].9X9X9X<X&X XC. .K l.T.V.A A 9X9X<Xl.l.V.1.6.&X!.-.,.C.<X;Xa.@.T.<X].r.6.).;XT ",
"g.l. Xv.,.1.C.T.l.{ o     9X9X-.+XT.~ @.l.l.@.z a.7X].l.6.r.q.-.~ T 1.V.R.z j 9X9X{ K -.q.{ ,.R.o.Z 6.V.).l.{ { g.!.a.E 1.!.1.  ",
"J.@.o.M z 6.q.J K T T 0 ~ 9X9Xg.C.6. .q.J.g.{ @. X&X-.T ) { -.6.a.r.l.$XT.    9X9X .~ ,.p. .~ o.) V.$X].H.p.1.r.).&Xg.Z E g.g.1 ",
"r.e 8 E  .-.) u T -.l.A g 9X&XZ E ~ ,.v.V.o.{ 1.-.,.o.o.@.{ q.a.r.1.v.T.o.    ].9X1.~ p.R.6.{ 1.C.$X).g.q.r.-.{ l.C.T , z q.H.1 ",
"M   6 o.b M -.@.q.v.V.    l.,.f ~ b K o.) J 1.o., 0 b 0 j { r.@.Z Z  . .z     !.7X,.K q.p.A e o.V.v.J   6 g e A 1.) % i -.v.r.  ",
"            6             6. .6 8           4                                 o.K               $                               ",
"  T  .E H.V.q.{ 6 ) 6.b  .9X7Xv.J.a.g T  .) { K 6 ; b ,.l.o.E z - - K b E V.V.C.g.1.-.f     M ].v.E     T q.{ ) j   J ,.A , 8 z ",
"9X9X9X9X9X9X9X9X9X9X9X&X9X9X9X9X9X9X9X9X9X9X9X$X{ J ;X9X9X9X9X9X9X9X9X9X9X9X9X9X9X9X9X9X!.<X9X9X9X9Xl.@.9X9X9X9X9X9X9X9X9X9X9X9X",
"9X9X).].9X!.,.$X9X<XR.J.9X9X+X+X9X<X).&X9X9Xv.i     9X9X9X;Xl.@.J.9X9X9X+XJ.V.C.&X9X<X).!.<X9X9X+X].z   9X9X).9X9X9X9X$X).].9X9X",
"7X9Xp.6.;XC.{ ).].-.A 1.).l.r.a.g.p.-.1.p.o.-     - 9X9Xl.,.j e a.<X Xl.)  .-.p.T.V.,.@.a.!.$X$XJ.@.    J.9XR. X).H.-.f i  .v.v.",
"J.9X{ -.&X).l.$X!.{ u o.l.a.g.o. .o.~ o.,.e   { M ~ 9X7X,.-.K r.<X9Xv.T K { -.a.p.{ E @.1.,.a.J.l.f     9X9X Xv.a.p.b   ; ,.-. .",
"C.9X .@.H.J.a.l. .f ~ T.].p.K - E 1.@.a.a.b { <X@.A 9X9X Xg.-.$X9X+X-.K @.-.r.V.T z 6.l.1.o.,.6.1.g     9X9Xr.E o.6.g + r.7XC.q.",
").<Xa.6.,.o.b 6     T a.r.M     K @.~ { Z % b 6.    H.9XR.o.@.C.1. .M M 1.1.o.M   A ,.f 8 e e J ~     b 9X9X4 6 b T - $ v.$X1.J ",
"V.g.{ i ; 1                                          . .                          o           1       % r.                      "
};
