/* XPM */
static char *cd49d207b78a49f3a7686053f83ce475XokZXPLscbNLnC0o[] = {
/* columns rows colors chars-per-pixel */
"64 64 142 2 ",
"   c #AA8526",
".  c #AC8726",
"X  c #AF8827",
"o  c #AE8927",
"O  c #B18A27",
"+  c #B28B27",
"@  c #B48D28",
"#  c #B68E28",
"$  c #B78F29",
"%  c #BA9229",
"&  c #B9912A",
"*  c #BC922A",
"=  c #BD932A",
"-  c #C0962B",
";  c #C1972B",
":  c #C49A2B",
">  c #C3992C",
",  c #C69B2C",
"<  c #C79B2C",
"1  c #CA9D2D",
"2  c #CB9F2D",
"3  c #CDA02D",
"4  c #CEA12D",
"5  c #D0A32E",
"6  c #D1A42F",
"7  c #D1A430",
"8  c #D2A532",
"9  c #D2A634",
"0  c #D3A636",
"q  c #D2A637",
"w  c #D3A839",
"e  c #D3A93A",
"r  c #D4AA3D",
"t  c #D4AA3E",
"y  c #D5AB40",
"u  c #D4AA41",
"i  c #D5AB43",
"p  c #D5AD44",
"a  c #D6AE47",
"s  c #D6AE48",
"d  c #D7AF49",
"f  c #D7B04B",
"g  c #D7B04C",
"h  c #D8B14E",
"j  c #D8B150",
"k  c #D9B452",
"l  c #D9B453",
"z  c #D9B455",
"x  c #D9B456",
"c  c #DAB558",
"v  c #DAB55A",
"b  c #DAB75D",
"n  c #DBB85C",
"m  c #DBB95F",
"M  c #DCBA63",
"N  c #DDBB64",
"B  c #DDBB65",
"V  c #DEBC67",
"C  c #DDBD68",
"Z  c #DEBE6A",
"A  c #DEBE6B",
"S  c #DFBF6E",
"D  c #DFBF6F",
"F  c #DFC071",
"G  c #DFC072",
"H  c #E0C274",
"J  c #E0C376",
"K  c #E1C478",
"L  c #E1C479",
"P  c #E1C47B",
"I  c #E1C47C",
"U  c #E2C57D",
"Y  c #E3C67F",
"T  c #E3C881",
"R  c #E4C983",
"E  c #E3C984",
"W  c #E4CA86",
"Q  c #E4CA87",
"!  c #E5CB8A",
"~  c #E5CB8B",
"^  c #E6CE8D",
"/  c #E5CD8E",
"(  c #E6CE90",
")  c #E6CE91",
"_  c #E7CF94",
"`  c #E7D097",
"'  c #E8D198",
"]  c #E8D299",
"[  c #E9D39B",
"{  c #E9D49D",
"}  c #EAD59F",
"|  c #EAD5A0",
" . c #EAD5A2",
".. c #EAD5A3",
"X. c #EBD8A5",
"o. c #EBD8A7",
"O. c #EBD9AA",
"+. c #ECD9A9",
"@. c #ECDAAC",
"#. c #ECDAAD",
"$. c #EDDBB0",
"%. c #EDDDB1",
"&. c #EEDEB2",
"*. c #EFDFB4",
"=. c #EEDEB5",
"-. c #EFDFB7",
";. c #EFDFB8",
":. c #F0E1BB",
">. c #F0E1BC",
",. c #F0E3BE",
"<. c #F0E3BF",
"1. c #F1E4C1",
"2. c #F1E4C3",
"3. c #F2E5C5",
"4. c #F2E5C6",
"5. c #F2E7C8",
"6. c #F3E8CB",
"7. c #F4E9CE",
"8. c #F5EAD0",
"9. c #F4EAD1",
"0. c #F5EBD3",
"q. c #F5ECD4",
"w. c #F6EED7",
"e. c #F6EED8",
"r. c #F6EEDB",
"t. c #F7EFDD",
"y. c #F8F2E1",
"u. c #F8F2E2",
"i. c #F8F3E4",
"p. c #F8F3E5",
"a. c #F9F4E6",
"s. c #FAF5E8",
"d. c #FAF5EA",
"f. c #FBF6EC",
"g. c #FBF8ED",
"h. c #FBF8F0",
"j. c #FCF9F2",
"k. c #FCFAF4",
"l. c #FCFAF7",
"z. c #FDFCF9",
"x. c #FEFEFE",
"c. c white",
/* pixels */
"o o o o o o o o o o o o o o o o o o o o o o o o o o o o o o o o o o o o o o o o o o o o o o o o o o o o o o o o o o o o o o o o ",
"o . o + + + + + + + + + + + + + + + + + + + + + + + + + + + + o . o . o + + + + + + + + + + + + + + + + + + + + + + + + + o . o ",
"o o = 5 5 5 5 5 5 5 5 5 5 5 5 5 5 5 5 5 5 5 5 5 5 5 5 5 5 q q # . o o 3 3 3 3 3 3 3 3 3 3 3 3 3 3 3 3 3 3 3 3 3 3 3 3 3 3 = o o ",
"o + 5 u u u u u u u u u u u u u u u u u u u u u u u u g g v k # o . & x f f r r r r r r r r r r r r r r r r r r r r r r r 3 + o ",
"o + 5 u u u u u u u u u u u u u u u u u u u u u u g g v v B f + o . > B x x f f r r r r r r r r r r r r r r r r r r r r r 3 + o ",
"o + 5 u u u u u u u u u u u u u u u u u u u u g g v v B B G r o o o q G B B x x f f r r r r r r r r r r r r r r r r r r r 3 + o ",
"o + 5 u u u u u u u u u u u u u u u u u u g g v v B B G G Y 8 o o + k Y G G B B x x f f r r r r r r r r r r r r r r r r r 3 + o ",
"o + 5 u u u u u u u u u u u u u u u u g g v v B B G G Y Y R 3 . o & J R Y Y G G B B x x f f r r r r r r r r r r r r r r r 3 + o ",
"o . # r u u u u u u u u u u u u u g g v v B B G G Y Y R R ! : o o , W E R R Y Y G G B B x x f f r r r r r r r r r r r r r 3 + o ",
"o o . + : u u u u u u u u u u g g v v B B G G Y Y R R W W E & o . e ! ! E E R R Y Y G G B B x x g f r r r r r r r r r r r 3 o o ",
"o o o . o # 8 u u u u u u g g v v B B G G Y Y R R W W ! ! A + o o k ! ! ! ! E E R R Y Y G G B B x x f f r r r r r r r r r # . o ",
"o . . o o . + & u u u g g v v B B G G Y Y R R W W ! ! ^ ^ k o o # G ) ) ! ! ! ! E T R R Y Y G G B B x x f f r r r r r e # . . o ",
"o . . . o o . o # , u g v B B G G Y Y R R W W ! ! ^ ^ ) ) u . o = ' ` ` ) ) ! ! ! ! E E R R Y Y G G B B x f r r r r 5 # . o o o ",
"o o &   . . o o . o & d B G G Y Y R R W W ! ! ^ ^ ) ) ` ' 5 o o 5  .' ' ` ` ) ) ! ! ! ! E E R R Y Y G G B x f r r ; + . o o . o ",
"o o = 3 = o . . o o o # 5 D Y R R W W ! ! ^ ^ ) ) ` ` ' o.; o . u o. . .' ' ` ` ) ) ! ! ! ! E E R R Y G B x f r # o . o . + # o ",
"o o = 3 3 3 o o . o o . + 1 M W W ! ! ^ ^ ) ) ` ` ' '  .! # o o n @.o.o. . .' ' ` ` ) ) ! ! ! ! E E R Y G B d & o o o . & 8 = o ",
"o o = 3 3 3 3 : . o . o o . & r ) ^ ^ ) ) ` ` ' '  . .o.D o o + ^ %.@.@.o.o. . .' ' ` ` ) ) ! ! ! E R Y G r # . o o o > j v = o ",
"o o = 3 3 3 3 3 q 1 & o . o o o 1 A ) ` ` ' '  . .o.o.@.k . o = $.-.%.%.@.@.o.o. . .' ' ` ` ) ) ! ! E R r # . o o + 3 A L v = o ",
"o o = 3 3 3 3 3 q u h 3 & o o o . # u ' '  . .o.o.@.@.%.r . o 3 1.:.-.-.%.%.@.@.o.o. . .' ' ` ) ! ! E 8 + o o . & e L L L v = o ",
"o o = 3 3 3 3 q u j n A M 8 & . o o o : b $.o.@.@.%.%.4.> o . u 1.>.:.:.-.-.%.%.@.@.o.o. . .' ` ) Y 3 o o o o , b R L L L v = o ",
"o o = 3 3 3 3 q u j n A J T n 6 + . o o + q ^ %.%.$.G q o o . & r x G { -.1.-.-.%.%.@.@.o. .' ` M ; . o o # e W ) R L L L v = o ",
"o o = 3 3 3 q u j n A J T ! ^ _ n 1 o o o . = 8 u > + . o o o o o . o # ; 5 a v L ' -.-.@.o.+.g # . o . ; n  .{ { ) R L L v = o ",
"o o = 3 3 3 q u j n A J T ! ^ ) _  .d = . o o . . o o o o o o o o o o o o o o . o # > 8 u v 1 + o o o 6 Y  . .{ { ) R L L v = o ",
"o o = 3 3 q u j n A J T ! ^ ) _ ' {  .W e o o o o o + 1 x M E n u 1 = + o o o o o o o o . . . o o + f $.@.o. . .{ { ) R L v = o ",
"o o = 3 3 q u j n A J T ! ^ ) _ ' {  .+.%.r . o o u ` p.g.j.j.l.z.g.6.o.J x q : # o o o o o o . # A :.%.@.o. . .{ { ) R L v = o ",
"o o = 3 q u j n A J T ! ^ ) _ ' {  .+.@.%.x . o > s.g.j.j.l.l.x.x.x.l.l.j.j.g.p.-.! M u ; o o . M 1.>.-.%.@.o. . .{ { ) R v = o ",
"o o = 3 q u j n A J T ! ^ ) _ ' {  .+.@.%.u . o q g.j.l.l.x.x.x.x.x.x.x.l.l.j.g.s.p.t.r.) + o + ' 1.>.-.%.@.o. . .{ { ) R v = o ",
"o o = q u j n A J T ! ^ ) _ ' {  .+.@.%.;.q o o f j.l.x.x.x.x.x.x.x.x.x.x.x.l.j.g.s.p.t.@.# o # { 4.1.>.-.%.@.o. . .{ { ) M = o ",
"o o = q u j n A J T ! ^ ) _ ' {  .+.@.%.5.1 o o B j.l.x.x.x.x.x.x.x.x.x.x.x.l.j.g.s.p.t.@.# o # { 4.1.>.-.%.@.o. . .{ { ) M = o ",
"o o : u j n A J T ! ^ ) _ ' {  .+.@.%.-.$.; o o W l.x.x.x.x.x.x.x.x.x.x.x.x.x.l.j.g.s.p.%.# o # o.6.4.1.>.-.%.@.o. . .{ { A ; o ",
"o o , u j n A J T ! ^ ) _ ' {  .+.@.%.-.{ # o + o.l.x.x.x.x.x.x.x.x.x.x.x.x.x.l.j.g.s.p.%.# o # o.6.4.1.>.-.%.@.o. . .{ { A ; o ",
"o + 6 j n A J T ! ^ ) _ ' {  .+.@.%.-.>.R o o # 5.x.x.x.x.x.x.x.x.x.x.x.x.x.x.x.l.j.g.s.-.# o # +.8.6.4.1.>.-.%.@.o. . .{ L > o ",
"o + 6 j n A J T ! ^ ) _ ' {  .+.@.%.-.>.A . o , u.x.x.x.x.x.x.x.x.x.x.x.x.x.x.x.l.j.g.s.-.# o # +.8.6.4.1.>.-.%.@.o. . .{ L > o ",
"o + 6 j n A J T ! ^ ) _ ' {  .+.@.%.-.>.j . o 8 j.x.x.x.x.x.x.x.x.x.x.x.x.x.x.x.l.j.g.s.-.# o # +.8.6.4.1.>.-.%.@.o. . .{ L > o ",
"o o , u j n A J T ! ^ ) _ ' {  .+.@.%.-.r o o u j.l.x.x.x.x.x.x.x.x.x.x.x.x.x.l.j.g.s.p.%.# o # o.6.4.1.>.-.%.@.o. . .{ { A ; o ",
"o o , u j n A J T ! ^ ) _ ' {  .+.@.%.>.5 o o x j.l.x.x.x.x.x.x.x.x.x.x.x.x.x.l.j.g.s.p.%.# o # o.6.4.1.>.-.%.@.o. . .{ { A ; o ",
"o o = q u j n A J T ! ^ ) _ ' {  .+.@.%.= o o D g.j.l.x.x.x.x.x.x.x.x.x.x.x.l.j.g.s.p.t.@.+ o # { 4.1.>.-.%.@.o. . .{ { ) M = o ",
"o o = q u j n A J T ! ^ ) _ ' {  .+.%.k o o o b g.j.l.x.x.x.x.x.x.x.x.x.x.x.l.j.g.s.f.{ e o o # { 4.1.>.-.%.@.o. . .{ { ) M = o ",
"o o = 3 q u j n A J T ! ^ ) _ ' { ! r o o o o & T g.j.l.l.x.x.x.x.x.x.x.l.l.j.h.$.B 3 # o o o . e 1.>.-.%.@.o. . .{ { ) R v = o ",
"o o = 3 q u j n A J T ! ^ ) _  .k ; . o o o o o # n p.j.j.l.l.x.x.x.l.l.l.1.J q # o o o o o o o & ^ >.-.%.@.o. . .{ { ) R v = o ",
"o o = 3 3 q u j n A J T ! ^ v 1 o o o o ; 1 # o o o q -.g.j.j.l.l.l.w.Y u = o o o o o + : 3 + o . q 1.%.@.o. . .{ { ) R L v = o ",
"o o = 3 3 q u j n A J T V q # . o o # u %.g.W , o o o : T g.f.u.^ d ; o o o o o o ; u Y 8.8.g . o o n %.@.o. . .{ { ) R L v = o ",
"o o = 3 3 3 q u j n n 6 & . o o . 1 Y p.u.p.s.:.e o o o # q j , + o o o o o & r J 6.r.8.7.5.-.1 o o = E o. . .{ { ) R L L v = o ",
"o o = 3 3 3 q u j q ; o o o . # h 1.w.r.u.p.p.s.p.n # o o o o o o o o # q G ;.p.r.r.8.8.7.5.1.G + o . q %. . .{ { ) R L L v = o ",
"o o = 3 3 3 3 1 # + . o o o 6 R 5.6.8.w.r.u.u.p.p.g.R & o o o o # 6 B O.s.t.r.r.8.8.7.7.5.1.>.>.r . o + x  .{ { ) R L L L v = o ",
"o o = 3 3 1 o o . o o . = v 1.1.4.6.8.w.w.r.r.u.u.p.p.! o o o 3  .f.t.t.r.r.8.8.7.7.5.5.1.1.>.;.) = o o = L { { ) R L L L v = o ",
"o o = 3 # o . . o o + q W %.-.>.1.4.6.8.8.w.w.r.r.u.u.f.6 o o g t.t.r.r.8.8.7.7.5.5.1.1.>.>.;.-.@.v o o . 8 ` ) R L L L L v = o ",
"o o # . o . o o . ; x %.$.%.-.>.1.4.4.6.6.8.8.w.w.r.r.u.v o o 3 a.r.8.8.7.7.5.5.1.4.>.>.;.;.-.-.@.-.8 . o + f ) R L L L L v = o ",
"o . . . o o . # 8 D o.@.@.$.%.-.>.1.1.4.4.6.6.8.8.w.w.r.L o o = 1.8.7.7.5.5.1.1.>.>.;.;.-.-.@.@.+. .G # o o = M L L L L L v = o ",
"o . . o o o > g ^ ' o.@.@.$.%.-.-.>.>.1.1.4.4.6.6.8.8.w.o.# o + E 7.5.5.1.1.>.>.;.;.-.-.@.@.+.+. . . .u o o . 3 J L L L L v = o ",
"o o o . # e L ^ ^ ^ ' o.@.@.$.%.%.-.-.>.>.1.1.4.4.6.6.8.6.: o . b 5.1.1.>.>.;.;.-.-.@.@.+.+. . . . .{ W > . o + e L L L L x = o ",
"o o o 3 n ^ ^ ^ ^ ^ ' o.@.@.@.$.$.%.%.-.-.>.>.1.1.4.4.6.8.e o o e 4.>.>.;.;.-.-.@.@.+.+. . . . .{ { ' ' g + o . = M L L L x = o ",
"o o e W ^ ^ ^ ^ ^ ^ ^ ' o.@.@.@.@.$.$.%.%.-.-.>.>.1.1.4.4.k . o , 4.;.;.-.-.@.@.+.+... . . .{ { ' ' ' ' W 1 . o o 3 L L L v = o ",
"o = A ^ ^ ^ ^ ^ ^ ^ ^ ' ' o.o.@.@.@.@.$.$.%.%.-.-.>.>.1.1.L o o # ` -.-.@.@.+.+. . . . .{ { ' ' ' ' ! ! Y n & o o @ u L L v = o ",
"o > A ^ ^ ^ ^ ^ ^ ^ ^ ^ ^ ' ' o.o.@.@.@.@.$.$.%.%.-.-.>.>.' # o o A @.@.+.+. . . . .{ { ' ' ' ' ! ! Y Y G G q o o . ; A L v = o ",
"o > A ^ ^ ^ ^ ^ ^ ^ ^ ^ ^ ^ ^ ' ' o.o.@.@.@.@.$.$.%.%.-.-.1., o . a +.+. . . . .{  .' ' ' ' ! ! Y Y G G G G A > . o o 6 L v = o ",
"o > A ^ ^ ^ ^ ^ ^ ^ ^ ^ ^ ^ ^ ^ ^ ' ' o.o.@.@.@.@.$.$.%.%.-.q o o 6 o. . . .{ { ' ' ' ' ! ! Y Y G G G G G G G d # o o # d v = o ",
"o > A ^ ^ ^ ^ ^ ^ ^ ^ ^ ^ ^ ^ ^ ^ ^ ^ ' ' o.o.@.@.@.@.$.$.%.j . o = _  .{ { ' ' ' ' ! ~ Y Y G G G G G G G G G G 6 o o . > j = o ",
"o > A ^ ^ ^ ^ ^ ^ ^ ^ ^ ^ ^ ^ ^ ^ ^ ^ ^ ^ ' ' o.o.@.@.@.@.$.V o o + A { ' ' ' ' ~ ~ Y Y G G G G G G G G G G G G V ; . o o 3 = o ",
"o > A ^ ^ ^ ^ ^ ^ ^ ^ ^ ^ ^ ^ ^ ^ ^ ^ ^ ^ ^ ^ ' ' o.o.@.@.@.T & o o a ' ' ' ! ! Y Y G G G G G G G G G G G G G G G u + o o # & o ",
"o > A ^ ^ ^ ^ ^ ^ ^ ^ ^ ^ ^ ^ ^ ^ ^ ^ ^ ^ ^ ^ ^ ^ ' ' o.o.@.{ > o . 5 ' ! ! Y Y G G G G G G G G G G G G G G G G G G 3 o o . + o ",
"o = j A A A A A A A A A A A A A A A A A A A A A A A A J J Y Y 3 . o & n b b x x x x x x x x x x x x x x x x x x x x a & . o . o ",
"o + = > > > > > > > > > > > > > > > > > > > > > > > > > > : : # . o o & = = = = = = = = = = = = = = = = = = = = = = = # . o . o ",
"o o o o o o o o o o o o o o o o o o o o o o o o o o o o o o o o o o o o o o o o o o o o o o o o o o o o o o o o o o o o o o o o "
};
