/* XPM */
static char *_922c72b7f024cdad72eae8e18a66c554JMn6133aktFR7NI[] = {
/* columns rows colors chars-per-pixel */
"64 64 142 2 ",
"   c #8326AA",
".  c #8526AC",
"X  c #8627AE",
"o  c #8627AF",
"O  c #8727B1",
"+  c #8827B2",
"@  c #8A28B4",
"#  c #8B28B6",
"$  c #8C29B7",
"%  c #8F2AB9",
"&  c #9029BA",
"*  c #902ABC",
"=  c #902ABD",
"-  c #932BC0",
";  c #942BC1",
":  c #962CC3",
">  c #972BC4",
",  c #982CC6",
"<  c #982CC7",
"1  c #9A2DCA",
"2  c #9C2DCB",
"3  c #9D2DCD",
"4  c #9E2DCE",
"5  c #A02ED0",
"6  c #A12FD1",
"7  c #A130D1",
"8  c #A232D2",
"9  c #A334D2",
"0  c #A337D2",
"q  c #A336D3",
"w  c #A539D3",
"e  c #A63AD3",
"r  c #A73DD4",
"t  c #A73ED4",
"y  c #A741D4",
"u  c #A840D5",
"i  c #A943D5",
"p  c #AB44D5",
"a  c #AC47D6",
"s  c #AB48D6",
"d  c #AC49D7",
"f  c #AD4BD7",
"g  c #AD4CD7",
"h  c #AE4ED8",
"j  c #AF50D8",
"k  c #B152D9",
"l  c #B253D9",
"z  c #B255D9",
"x  c #B256D9",
"c  c #B258DA",
"v  c #B25ADA",
"b  c #B55DDA",
"n  c #B65CDB",
"m  c #B75FDB",
"M  c #B863DC",
"N  c #B964DD",
"B  c #B965DD",
"V  c #BA67DE",
"C  c #BB68DD",
"Z  c #BC6ADE",
"A  c #BC6BDE",
"S  c #BD6EDF",
"D  c #BD6FDF",
"F  c #BE71DF",
"G  c #BE72DF",
"H  c #C074E0",
"J  c #C176E0",
"K  c #C278E1",
"L  c #C279E1",
"P  c #C27BE1",
"I  c #C27CE1",
"U  c #C37DE2",
"Y  c #C47FE3",
"T  c #C681E3",
"R  c #C784E3",
"E  c #C783E4",
"W  c #C886E4",
"Q  c #C887E4",
"!  c #C98AE5",
"~  c #C98BE5",
"^  c #CC8EE5",
"/  c #CC8DE6",
"(  c #CC90E6",
")  c #CC91E6",
"_  c #CD94E7",
"`  c #CF97E7",
"'  c #D098E8",
"]  c #D199E8",
"[  c #D29BE9",
"{  c #D39DE9",
"}  c #D49FEA",
"|  c #D4A0EA",
" . c #D4A2EA",
".. c #D4A3EA",
"X. c #D7A5EB",
"o. c #D7A7EB",
"O. c #D8AAEB",
"+. c #D8A9EC",
"@. c #D9ACEC",
"#. c #D9ADEC",
"$. c #DAB0ED",
"%. c #DCB1ED",
"&. c #DDB2EE",
"*. c #DDB5EE",
"=. c #DEB4EF",
"-. c #DEB7EF",
";. c #DEB8EF",
":. c #E0BBF0",
">. c #E0BCF0",
",. c #E2BEF0",
"<. c #E2BFF0",
"1. c #E3C1F1",
"2. c #E3C3F1",
"3. c #E4C5F2",
"4. c #E4C6F2",
"5. c #E6C8F2",
"6. c #E7CBF3",
"7. c #E8CEF4",
"8. c #E9D1F4",
"9. c #E9D0F5",
"0. c #EAD3F5",
"q. c #EBD4F5",
"w. c #EDD7F6",
"e. c #EDD8F6",
"r. c #EDDBF6",
"t. c #EFDDF7",
"y. c #F2E1F8",
"u. c #F2E2F8",
"i. c #F3E4F8",
"p. c #F3E5F8",
"a. c #F4E6F9",
"s. c #F5E8FA",
"d. c #F5EAFA",
"f. c #F6ECFB",
"g. c #F8EDFB",
"h. c #F8F0FB",
"j. c #F9F2FC",
"k. c #FAF4FC",
"l. c #FAF7FC",
"z. c #FCF9FD",
"x. c #FEFEFE",
"c. c white",
/* pixels */
"X X X X X X X X X X X X X X X X X X X X X X X X X X X X X X X X X X X X X X X X X X X X X X X X X X X X X X X X X X X X X X X X ",
"X X X + + + + + + + + + + + + + + + + + + + + + + + + + + + + X X X X X + + + + + + + + + + + + + + + + + + + + + + + + + X X X ",
"X X = 5 5 5 5 5 5 5 5 5 5 5 5 5 5 5 5 5 5 5 5 5 5 5 5 5 5 0 0 $ X X X 3 3 3 3 3 3 3 3 3 3 3 3 3 3 3 3 3 3 3 3 3 3 3 3 3 3 = X X ",
"X + 5 y y y y y y y y y y y y y y y y y y y y y y y y g g v k $ X X % x d d r r r r r r r r r r r r r r r r r r r r r r r 3 + X ",
"X + 5 y y y y y y y y y y y y y y y y y y y y y y g g v v B d + X X : B x x d d r r r r r r r r r r r r r r r r r r r r r 3 + X ",
"X + 5 y y y y y y y y y y y y y y y y y y y y g g v v B B G r X X X 0 G B B x x d d r r r r r r r r r r r r r r r r r r r 3 + X ",
"X + 5 y y y y y y y y y y y y y y y y y y g g v v B B G G Y 8 X X + k U G G B B x x d d r r r r r r r r r r r r r r r r r 3 + X ",
"X O 5 y y y y y y y y y y y y y y y y g g v v B B G G Y Y E 3 X X & J E U U G G B B x x d d r r r r r r r r r r r r r r r 3 + X ",
"X X # r y y y y y y y y y y y y y g g v v B B G G Y Y E E ! > X X , W R E E U U G G B B x x d d r r r r r r r r r r r r r 3 + X ",
"X X X + > y y y y y y y y y y g g v v B B G G Y Y E E W W R & X X e ! ! R R E E U U G G B B x x g d r r r r r r r r r r r 3 X X ",
"X X X X X # 8 y y y y y y g g v v B B G G Y Y E E W W ! ! A + X X k ! ! ! ! R R E E U U G G B B x x g d r r r r r r r r r # X X ",
"X X X X X X O & u y y g g v v B B G G Y Y E E W W ! ! / / k X X # G ) ) ! ! ! ! R R E E U U G G B B x x d d r r r r r e # X X X ",
"X X X X X X X X # , y g v B B G G Y Y E E W W ! ! / / ) ) y X X = ' ` ` ) ) ! ! ! ! R R E E U U G G B B x d r r r r 5 # X X X X ",
"X X %   X X X X X X % d B G G Y Y E E W W ! ! / / ) ) ` ' 5 X X 5  .' ' ` ` ) ) ! ! ! ! R R E E U U G G B x d r r - O X X X X X ",
"X X = 3 = X X X X X X # 5 D Y E E W W ! ! / / ) ) ` ` ' o.; X X u o. . .' ' ` ` ) ) ! ! ! ! R R E E U G B x d r # X X X X O # X ",
"X X = 3 3 3 X X X X X X O 1 M W W ! ! / / ) ) ` ` ' '  .! $ X X n @.o.o. . .' ' ` ` ) ) ! ! ! ! R R E U G B s % X X X X & 8 = X ",
"X X = 3 3 3 3 > X X X X X X % r ) / / ) ) ` ` ' '  . .o.D X X + / %.@.@.o.o. . .' ' ` ` ) ) ! ! ! R E U G r $ X X X X : j v = X ",
"X X = 3 3 3 3 3 0 2 % X X X X X 2 A ) ` ` ' '  . .o.o.@.k X X = $.-.%.%.@.@.o.o. . .' ' ` ` ) ) ! ! R E r # X X X O 3 C L v = X ",
"X X = 3 3 3 3 3 0 y h 3 & X X X X # y ' '  . .o.o.@.@.%.r X X 3 1.:.-.-.%.%.@.@.o.o. . .' ' ` ) ! ! R 8 O X X X % e L L L v = X ",
"X X = 3 3 3 3 0 y j n C M 8 % X X X X > n $.o.@.@.%.%.4.: X X u 1.>.:.:.-.-.%.%.@.@.o.o. . .' ` ) U 3 X X X X , n E L L L v = X ",
"X X = 3 3 3 3 0 y j n C J T n 5 + X X X + 0 / %.%.$.G 0 X X X % r x G { -.1.-.-.%.%.@.@.o. .' ` M ; X X X # e W ) E L L L v = X ",
"X X = 3 3 3 0 y j n C J T ! / ` n 1 X X X X = 8 y : O X X X X X X X X # - 5 p v L ' -.-.@.o.+.g $ X X X - n  .} { ) E L L v = X ",
"X X = 3 3 3 0 y j n C J T ! / ) `  .d = X X X X X X X X X X X X X X X X X X X X X $ ; 8 y v 1 O X X X 5 Y  . .} { ) E L L v = X ",
"X X = 3 3 0 y j n C J T ! / ) ` ' {  .W e X X X X X + 1 x M R n u 2 = O X X X X X X X X X X X X X + d $.@.o. . .} { ) E L v = X ",
"X X = 3 3 0 y j n C J T ! / ) ` ' {  .+.%.r X X X u ` p.g.j.j.l.z.g.5.o.J x 0 > $ X X X X X X X $ A :.%.@.o. . .} { ) E L v = X ",
"X X = 3 0 y j n C J T ! / ) ` ' {  .+.@.%.x X X : s.g.j.j.l.l.x.x.x.l.l.j.j.g.p.-.! M u ; X X X M 1.>.-.%.@.o. . .} { ) E v = X ",
"X X = 3 0 y j n C J T ! / ) ` ' {  .+.@.%.y X X 0 g.j.l.l.x.x.x.x.x.x.x.l.l.j.g.s.p.t.r.) + X O ' 1.>.-.%.@.o. . .} { ) E v = X ",
"X X = 0 y j n C J T ! / ) ` ' {  .+.@.%.;.0 X X d j.l.x.x.x.x.x.x.x.x.x.x.x.l.j.g.s.p.t.@.@ X # } 4.1.>.-.%.@.o. . .} { ) M = X ",
"X X = 0 y j n C J T ! / ) ` ' {  .+.@.%.5.1 X X B j.l.x.x.x.x.x.x.x.x.x.x.x.l.j.g.s.p.t.@.# X # } 4.1.>.-.%.@.o. . .} { ) M = X ",
"X X , y j n C J T ! / ) ` ' {  .+.@.%.-.$.- X X W l.x.x.x.x.x.x.x.x.x.x.x.x.x.l.j.g.s.p.%.# X # o.5.4.1.>.-.%.@.o. . .} { A - X ",
"X X , y j n C J T ! / ) ` ' {  .+.@.%.-.{ # X O o.l.x.x.x.x.x.x.x.x.x.x.x.x.x.l.j.g.s.p.%.# X # o.5.4.1.>.-.%.@.o. . .} { A - X ",
"X O 5 j n C J T ! / ) ` ' {  .+.@.%.-.>.E X X $ 5.x.x.x.x.x.x.x.x.x.x.x.x.x.x.x.l.j.g.s.-.# X # +.9.5.4.1.>.-.%.@.o. . .} L : X ",
"X O 5 j n C J T ! / ) ` ' {  .+.@.%.-.>.A X X , u.x.x.x.x.x.x.x.x.x.x.x.x.x.x.x.l.j.g.s.-.# X # +.9.5.4.1.>.-.%.@.o. . .} L : X ",
"X O 5 j n C J T ! / ) ` ' {  .+.@.%.-.>.j X X 8 j.x.x.x.x.x.x.x.x.x.x.x.x.x.x.x.l.j.g.s.-.# X # +.9.5.4.1.>.-.%.@.o. . .} L : X ",
"X X , y j n C J T ! / ) ` ' {  .+.@.%.-.r X X u j.l.x.x.x.x.x.x.x.x.x.x.x.x.x.l.j.g.s.p.%.# X # o.5.4.1.>.-.%.@.o. . .} { A - X ",
"X X , y j n C J T ! / ) ` ' {  .+.@.%.>.5 X X x j.l.x.x.x.x.x.x.x.x.x.x.x.x.x.l.j.g.s.p.%.# X # o.5.4.1.>.-.%.@.o. . .} { A - X ",
"X X = 0 y j n C J T ! / ) ` ' {  .+.@.%.= X X D g.j.l.x.x.x.x.x.x.x.x.x.x.x.l.j.g.s.p.t.@.+ X # } 4.1.>.-.%.@.o. . .} { ) M = X ",
"X X = 0 y j n C J T ! / ) ` ' {  .+.%.k X X X n g.j.l.x.x.x.x.x.x.x.x.x.x.x.l.j.g.s.f.{ e X X # } 4.1.>.-.%.@.o. . .} { ) M = X ",
"X X = 3 0 y j n C J T ! / ) ` ' { ! r X X X X & T g.j.l.l.x.x.x.x.x.x.x.l.l.j.h.$.B 3 # X X X X e 1.>.-.%.@.o. . .} { ) E v = X ",
"X X = 3 0 y j n C J T ! / ) `  .k - X X X X X X # n p.j.j.l.l.x.x.x.l.l.l.1.J 0 $ X X X X X X X & / >.-.%.@.o. . .} { ) E v = X ",
"X X = 3 3 0 y j n C J T ! / v 1 X X X X - 1 # X X X 0 -.g.j.j.l.l.l.q.Y u = X X X X X O > 3 O X X 0 1.%.@.o. . .} { ) E L v = X ",
"X X = 3 3 0 y j n C J T B 0 # X X X # u %.g.W , X X X > T g.f.u./ s ; X X X X X X - y U 9.9.g X X X n %.@.o. . .} { ) E L v = X ",
"X X = 3 3 3 0 y j n n 5 % X X X X 1 U p.u.p.s.:.e X X X # 0 j , O X X X X X & r J 5.r.9.7.5.-.1 X X = R o. . .} { ) E L L v = X ",
"X X = 3 3 3 0 y j 0 - X X X X $ h 1.w.r.u.p.p.s.p.n # X X X X X X X X $ 0 G ;.p.r.r.9.9.7.5.1.G + X X 0 %. . .} { ) E L L v = X ",
"X X = 3 3 3 3 1 # O X X X X 5 E 5.5.9.w.r.u.u.p.p.g.E % X X X X # 5 B O.s.t.r.r.9.9.7.7.5.1.>.>.r X X O x  .} { ) E L L L v = X ",
"X X = 3 3 2 X X X X X X = v 1.1.4.5.9.w.w.r.r.u.u.p.p.! X X X 3  .f.t.t.r.r.9.9.7.7.5.5.1.1.>.;.) = X X = L } { ) E L L L v = X ",
"X X = 3 $ X X X X X O 0 W %.-.>.1.4.5.9.9.w.w.r.r.u.u.f.5 X X g t.t.r.r.9.9.7.7.5.5.1.1.>.>.;.-.@.v X X X 8 ` ) E L L L L v = X ",
"X X $ X X X X X X - x %.$.%.-.>.1.4.4.5.5.9.9.w.w.r.r.u.v X X 3 a.r.9.9.7.7.5.5.1.2.>.>.;.;.-.-.@.-.8 X X + d ) E L L L L v = X ",
"X X X X X X X # 8 D o.@.@.$.%.-.>.1.1.4.4.5.5.9.9.w.w.r.L X X = 1.9.7.7.5.5.1.1.>.>.;.;.-.-.@.@.+. .G $ X X = M L L L L L v = X ",
"X X X X X X : g / ' o.@.@.$.%.-.-.>.>.1.1.4.4.5.5.9.9.w.o.# X O R 7.5.5.1.1.>.>.;.;.-.-.@.@.+.+. . . .u X X X 3 J L L L L v = X ",
"X X X X $ e L / / / ' o.@.@.$.%.%.-.-.>.>.1.1.4.4.5.5.9.5.> X X n 5.1.1.>.>.;.;.-.-.@.@.+.+. . . . .} W : X X O e L L L L x = X ",
"X X X 3 n / / / / / ' o.@.@.@.$.$.%.%.-.-.>.>.1.1.4.4.5.9.e X X e 4.>.>.;.;.-.-.@.@.+.+. . . . .} } ' ' g + X X = M L L L x = X ",
"X X e W / / / / / / / ' o.@.@.@.@.$.$.%.%.-.-.>.>.1.1.4.4.k X X , 4.;.;.-.-.@.@.+.+.o. . . .} } ' ' ' ' W 1 X X X 3 L L L v = X ",
"X = A / / / / / / / / ' ' o.o.@.@.@.@.$.$.%.%.-.-.>.>.1.1.L X X # ` -.-.@.@.+.+. . . . .} } ' ' ' ' ! ! U n % X X # y L L v = X ",
"X : A / / / / / / / / / / ' ' o.o.@.@.@.@.$.$.%.%.-.-.>.>.' $ X X C @.@.+.+. . . . .} } ' ' ' ' ! ! U U G G 0 X X X - C L v = X ",
"X : A / / / / / / / / / / / / ' ' o.o.@.@.@.@.$.$.%.%.-.-.1., X X a +.+. . . . .} } ' ' ' ' ! ! U U G G G G A : X X X 5 L v = X ",
"X : A / / / / / / / / / / / / / / ' ' o.o.@.@.@.@.$.$.%.%.-.0 X X 5 o. . . .} } ' ' ' ' ! ! U U G G G G G G G s # X X # s v = X ",
"X : A / / / / / / / / / / / / / / / / ' ' o.o.@.@.@.@.$.$.%.j X X = `  .} } ' ' ' ' ! ! U U G G G G G G G G G G 5 X X X : j = X ",
"X : A / / / / / / / / / / / / / / / / / / ' ' o.o.@.@.@.@.$.B X X O C } ' ' ' ' ! ~ U U G G G G G G G G G G G G B ; X X X 3 = X ",
"X : A / / / / / / / / / / / / / / / / / / / / ' ' o.o.@.@.@.T % X X p ' ' ' ! ! U U G G G G G G G G G G G G G G G u + X X # % X ",
"X : A / / / / / / / / / / / / / / / / / / / / / / ' ' o.o.@.} : X X 5 ' ! ! U U G G G G G G G G G G G G G G G G G G 3 X X X O X ",
"X = j A A A A A A A A A A A A A A A A A A A A A A A A J J U U 3 X X % n n n x x x x x x x x x x x x x x x x x x x x p % X X X X ",
"X O = : : : : : : : : : : : : : : : : : : : : : : : : : : > > $ X X X % = = = = = = = = = = = = = = = = = = = = = = = $ X X X X ",
"X X X X X X X X X X X X X X X X X X X X X X X X X X X X X X X X X X X X X X X X X X X X X X X X X X X X X X X X X X X X X X X X "
};
