/* XPM */
static char *_154362ba2414b36e93e3b85f9bfe835jEZYJV6LmVkuiOeM[] = {
/* columns rows colors chars-per-pixel */
"64 64 142 2 ",
"   c #38998B",
".  c #389A8C",
"X  c #399C8E",
"o  c #399D8E",
"O  c #3A9F90",
"+  c #3AA091",
"@  c #3BA293",
"#  c #3BA394",
"$  c #3CA495",
"%  c #3DA697",
"&  c #3DA798",
"*  c #3EA999",
"=  c #3EAA9A",
"-  c #3FAC9C",
";  c #3FAD9D",
":  c #40AF9F",
">  c #40B0A0",
",  c #41B2A2",
"<  c #41B3A2",
"1  c #42B5A4",
"2  c #42B6A5",
"3  c #43B8A7",
"4  c #43B9A8",
"5  c #44BBAA",
"6  c #45BCAB",
"7  c #46BCAB",
"8  c #48BDAC",
"9  c #49BDAC",
"0  c #4BBEAD",
"q  c #4CBEAD",
"w  c #4EBFAF",
"e  c #4FBFAF",
"r  c #51C0B0",
"t  c #52C0B0",
"y  c #54C1B1",
"u  c #55C1B1",
"i  c #57C2B2",
"p  c #58C2B3",
"a  c #5AC3B4",
"s  c #5BC3B4",
"d  c #5CC4B5",
"f  c #5EC5B6",
"g  c #5FC5B6",
"h  c #61C6B7",
"j  c #62C6B7",
"k  c #64C7B9",
"l  c #65C7B9",
"z  c #67C8BA",
"x  c #68C8BA",
"c  c #6AC9BB",
"v  c #6BC9BB",
"b  c #6DCABD",
"n  c #6ECABD",
"m  c #70CBBE",
"M  c #73CCBF",
"N  c #74CDC0",
"B  c #75CDC0",
"V  c #77CEC1",
"C  c #78CEC2",
"Z  c #7ACFC3",
"A  c #7BCFC3",
"S  c #7DD0C4",
"D  c #7ED0C4",
"F  c #80D1C5",
"G  c #81D1C5",
"H  c #83D2C7",
"J  c #84D2C7",
"K  c #86D3C8",
"L  c #87D3C8",
"P  c #89D4C9",
"I  c #8AD4C9",
"U  c #8BD5CA",
"Y  c #8DD6CB",
"T  c #8ED6CC",
"R  c #90D7CD",
"E  c #91D7CD",
"W  c #93D8CE",
"Q  c #94D8CE",
"!  c #96D9CF",
"~  c #97D9CF",
"^  c #99DAD1",
"/  c #9ADAD1",
"(  c #9CDBD2",
")  c #9DDBD2",
"_  c #9FDCD3",
"`  c #A2DDD4",
"'  c #A3DED5",
"]  c #A4DED6",
"[  c #A6DFD7",
"{  c #A7DFD7",
"}  c #A9E0D8",
"|  c #AAE0D8",
" . c #ACE1D9",
".. c #ADE1D9",
"X. c #AFE2DB",
"o. c #B0E2DB",
"O. c #B2E3DC",
"+. c #B3E3DC",
"@. c #B5E4DD",
"#. c #B6E4DD",
"$. c #B8E5DE",
"%. c #B9E5DF",
"&. c #BAE6E0",
"*. c #BCE7E1",
"=. c #BDE7E1",
"-. c #BFE8E2",
";. c #C0E8E2",
":. c #C2E9E3",
">. c #C3E9E3",
",. c #C5EAE5",
"<. c #C6EAE5",
"1. c #C8EBE6",
"2. c #C9EBE6",
"3. c #CBECE7",
"4. c #CCECE7",
"5. c #CEEDE9",
"6. c #D1EEEA",
"7. c #D3EFEB",
"8. c #D5F0EC",
"9. c #D6F0EC",
"0. c #D8F1ED",
"q. c #D9F1EE",
"w. c #DBF2EF",
"e. c #DCF2EF",
"r. c #DFF3F0",
"t. c #E1F4F1",
"y. c #E4F5F3",
"u. c #E5F5F3",
"i. c #E7F6F4",
"p. c #E8F6F4",
"a. c #E9F7F5",
"s. c #EBF8F6",
"d. c #ECF8F6",
"f. c #EEF9F7",
"g. c #EFF9F8",
"h. c #F2FAF9",
"j. c #F4FBFA",
"k. c #F5FBFA",
"l. c #F8FCFB",
"z. c #FAFDFD",
"x. c #FEFEFE",
"c. c white",
/* pixels */
"X X X X X X X X X X X X X X X X X X X X X X X X X X X X X X X X X X X X X X X X X X X X X X X X X X X X X X X X X X X X X X X X ",
"X . X + + + + + + + + + + + + + + + + + + + + + + + + + + + + X . X . X + + + + + + + + + + + + + + + + + + + + + + + + + X . X ",
"X X = 5 5 5 5 5 5 5 5 5 5 5 5 5 5 5 5 5 5 5 5 5 5 5 5 5 5 q q % . X X 4 4 4 4 4 4 4 4 4 4 4 4 4 4 4 4 4 4 4 4 4 4 4 4 4 4 = X X ",
"X + 5 u u u u u u u u u u u u u u u u u u u u u u u u g g v k % X . % v g g r r r r r r r r r r r r r r r r r r r r r r r 4 + X ",
"X + 5 u u u u u u u u u u u u u u u u u u u u u u g g v v B g + X . : B v v g g r r r r r r r r r r r r r r r r r r r r r 4 + X ",
"X + 5 u u u u u u u u u u u u u u u u u u u u g g v v B B G r X X X 8 G B B v v g g r r r r r r r r r r r r r r r r r r r 4 + X ",
"X + 5 u u u u u u u u u u u u u u u u u u g g v v B B G G Y 8 X X + k U G G B B v v g g r r r r r r r r r r r r r r r r r 4 + X ",
"X O 5 u u u u u u u u u u u u u u u u g g v v B B G G Y Y R 3 . X & G R U U G G B B v v g g r r r r r r r r r r r r r r r 4 + X ",
"X . # r u u u u u u u u u u u u u g g v v B B G G Y Y R R ! > X X > W R R R U U G D N N v v g g r r r r r r r r r r r r r 4 + X ",
"X X . + > u u u u u u u u u u g g v v B B G G Y Y R R W W R & X . q ! ! R R R R U U D D B B v v g g r r r r r r r r r r r 4 X X ",
"X X X . X # 8 u u u u u u g g v v B B G G Y Y R R W W ! ! A + X X k ! ! ! ! R R R R U U G G B B v v g g r r r r r r r r r # . X ",
"X . . X X . O & u u u g g v v B B G G Y Y R R W W ! ! ^ ^ k X X + G ) ) ! ! ! ! R R R R U U G G B B v v g g r r r r r q # . . X ",
"X . . . X X . X + > u g v B B G G Y Y R R W W ! ! ^ ^ ) ) u . X = [ ' ' ) ) ! ! ! ! R R R R U U G G B B v g r r r r 5 + . X X X ",
"X X %   . . X X . X % g B G G Y Y R R W W ! ! ^ ^ ) ) ' ' 5 X X 5  .[ [ ' ' ) ) ! ! ! ! R R R R U U G G B v g r r ; O . X X . X ",
"X X = 3 = X . . X X X # 5 D Y R R W W ! ! ^ ^ ) ) ' ' [ o.; X . u  .| | [ [ ' ' ) ) ! ! ! ! R R R R U G B v g r # X . X . O + X ",
"X X = 3 3 3 X X . X X . O 1 M W W ! ! ^ ^ ) ) ' ' [ [  .! % X X m @. . .| | [ [ ' ' ) ) ! ! ! ! R R R U G B s % X X X . & 7 = X ",
"X X = 3 3 3 3 > . X . X X . % r ) ^ ^ ) ) ' ' [ [  . .o.D X X + ^ %.@.@. . .| | [ [ ' ' ) ) ! ! ! R R U G r % . X X X : h v = X ",
"X X = 3 3 3 3 3 8 1 % X . X X X 1 A ) ' ' [ [  . .o.o.@.k . X = %.=.%.%.@.@. . .| | [ [ ' ' ) ) ! ! R R r # . X X O 4 A L v = X ",
"X X = 3 3 3 3 3 8 u h 3 & X X X . # u ' [  . .o.o.@.@.%.r . X 4 1.;.=.=.%.%.@.@. . .| | [ [ ' ) ! ! R 7 O X X . % q L L L v = X ",
"X X = 3 3 3 3 8 u h b A M 8 % . X X X > b %.o.@.@.%.%.4.: X . u 1.<.;.;.=.=.%.%.@.@. . .| | [ ' ) U 4 X X X X > b R L L L v = X ",
"X X = 3 3 3 3 8 u h b A J T m 7 + . X X + 8 ^ %.%.%.G 8 X X . % r v G [ =.1.=.=.%.%.@.@. .| [ ' M ; . X X + q ! ) R L L L v = X ",
"X X = 3 3 3 8 u h b A J T ! ^ _ b 1 X X X . = 7 u : O . X X X X X . X + ; 5 p v U [ -.=.@. .O.g % . X . ; b  .| [ ) R L L v = X ",
"X X = 3 3 3 8 u h b A J T ! ^ ) _ | g = . X X . . X X X X X X X X X X X X X X . X % : 7 u v 1 O X X X 7 Y  . .| [ ) R L L v = X ",
"X X = 3 3 8 u h b A J T ! ^ ) _ ' [  .! q X X X X X + 1 v M R m u 1 = O X X X X X X X X . . . X X + g %.@.o. . .| [ ) R L v = X ",
"X X = 3 3 8 u h b A J T ! ^ ) _ ' [  .O.%.r . X X u ' p.g.j.j.l.z.g.6. .J v q > % X X X X X X . % A ;.%.@.o. . .| [ ) R L v = X ",
"X X = 3 8 u h b A J T ! ^ ) _ ' [  .O.@.&.z . X : s.g.j.j.l.l.x.x.x.l.l.j.j.g.p.-.! M u ; X X . M 1.;.-.%.@.o. . .| [ ) R v = X ",
"X X = 3 8 u h b A J T ! ^ ) _ ' [  .O.@.&.u . X q g.j.l.l.x.x.x.x.x.x.x.l.l.j.g.s.i.t.e.) + X O [ 1.;.-.%.@.o. . .| [ ) R v = X ",
"X X = 8 u h b A J T ! ^ ) _ ' [  .O.@.&.;.8 X X g j.l.x.x.x.x.x.x.x.x.x.x.x.l.j.g.s.i.t.@.+ X + | 4.1.;.-.%.@.o. . .| [ ) M = X ",
"X X = 8 u h b A J T ! ^ ) _ ' [  .O.@.&.5.1 X X B j.l.x.x.x.x.x.x.x.x.x.x.x.l.j.g.s.i.t.@.@ X + | 4.1.;.-.%.@.o. . .| [ ) M = X ",
"X X > u h b A J T ! ^ ) _ ' [  .O.@.&.-.%.; X X ! l.x.x.x.x.x.x.x.x.x.x.x.x.x.l.j.g.s.i.%.+ X +  .6.4.1.;.-.%.@.o. . .| [ A ; X ",
"X X > u h b A J T ! ^ ) _ ' [  .O.@.&.-.[ + X O  .l.x.x.x.x.x.x.x.x.x.x.x.x.x.l.j.g.s.i.%.+ X +  .6.4.1.;.-.%.@.o. . .| [ A ; X ",
"X O 7 h b A J T ! ^ ) _ ' [  .O.@.&.-.;.R X X % 5.x.x.x.x.x.x.x.x.x.x.x.x.x.x.x.l.j.g.s.=.+ X + O.8.6.4.1.;.-.%.@.o. . .| L : X ",
"X O 7 h b A J T ! ^ ) _ ' [  .O.@.&.-.;.A . X > u.x.x.x.x.x.x.x.x.x.x.x.x.x.x.x.l.j.g.s.=.+ X + O.8.6.4.1.;.-.%.@.o. . .| L : X ",
"X O 7 h b A J T ! ^ ) _ ' [  .O.@.&.-.;.h . X 7 j.x.x.x.x.x.x.x.x.x.x.x.x.x.x.x.l.j.g.s.=.+ X + O.8.6.4.1.;.-.%.@.o. . .| L : X ",
"X X > u h b A J T ! ^ ) _ ' [  .O.@.&.-.r X X u j.l.x.x.x.x.x.x.x.x.x.x.x.x.x.l.j.g.s.i.%.+ X +  .6.4.1.;.-.%.@.o. . .| [ A ; X ",
"X X > u h b A J T ! ^ ) _ ' [  .O.@.&.<.5 X X v j.l.x.x.x.x.x.x.x.x.x.x.x.x.x.l.j.g.s.i.%.+ X +  .6.4.1.>.-.%.@.o. . .| [ A ; X ",
"X X = 8 u h b A J T ! ^ ) _ ' [  .O.@.%.= X X D g.j.l.x.x.x.x.x.x.x.x.x.x.x.l.j.g.s.i.t.@.+ X + | 4.1.;.-.%.@.o. . .| [ ) M = X ",
"X X = 8 u h b A J T ! ^ ) _ ' [  .O.%.k X X X b g.j.l.x.x.x.x.x.x.x.x.x.x.x.l.j.g.s.f.[ q X X + | 4.1.;.-.%.@.o. . .| [ ) M = X ",
"X X = 3 8 u h b A J T ! ^ ) _ ' [ ! r X X X X & T g.j.l.l.x.x.x.x.x.x.x.l.l.j.h.%.B 4 + X X X . q 1.;.-.%.@.o. . .| [ ) R v = X ",
"X X = 3 8 u h b A J T ! ^ ) _  .k ; . X X X X X # b p.j.j.l.l.x.x.x.l.l.j.1.J q % X X X X X X X & ^ ;.-.%.@.o. . .| [ ) R v = X ",
"X X = 3 3 8 u h b A J T ! ^ v 1 X X X X ; 1 # X X X q -.g.j.j.l.l.l.w.Y u = X X X X X O > 4 O X . 8 1.%.@.o. . .| [ ) R L v = X ",
"X X = 3 3 8 u h b A J T B 8 # . X X + u &.g.W > X X X > T g.f.u.^ s ; X X X X X X ; u U w.8.g . X X m %.@.o. . .| [ ) R L v = X ",
"X X = 3 3 3 8 u h b m 7 % . X X . 1 U p.u.p.f.;.q X X X + 8 h > O X X X X X & r J 6.e.w.6.5.=.1 X X = R o. . .| [ ) R L L v = X ",
"X X = 3 3 3 8 u h 8 ; X X X . % h 1.w.r.u.p.p.f.p.m + X X X X X X X X % 8 G ;.p.e.e.w.w.6.5.1.G + X . 8 %. . .| [ ) R L L v = X ",
"X X = 3 3 3 3 1 # O . X X X 7 R 5.6.8.w.r.u.u.p.p.g.R % X X X X + 7 B O.f.t.e.e.w.w.6.6.5.1.<.<.r . X O v  .| [ ) R L L L v = X ",
"X X = 3 3 1 X X . X X . = v 1.1.4.6.8.w.w.r.r.u.u.p.p.! X X X 4  .f.t.t.e.e.w.w.6.6.5.5.1.1.<.;.) = X X = U | [ ) R L L L v = X ",
"X X = 3 % X . . X X O 8 W %.=.;.1.4.6.8.8.w.w.r.r.u.u.f.7 X X g t.t.e.e.w.w.6.6.5.5.1.1.<.<.;.=.@.v X X . 7 ' ) R L L L L v = X ",
"X X % . X . X X . ; z &.%.%.=.;.1.4.4.6.6.8.8.w.w.r.r.u.v X X 4 p.e.w.w.6.6.5.5.1.1.<.<.;.;.=.=.@.-.7 . X + g ) R L L L L v = X ",
"X . . . X X . + 7 D  .@.@.%.%.=.;.1.1.4.4.6.6.8.8.w.w.r.L X X = 1.w.6.6.5.5.1.1.<.<.;.;.=.=.@.@.O. .G % X X = M L L L L L v = X ",
"X . . X X X : g ^ [  .@.@.%.%.=.=.;.;.1.1.4.4.6.6.8.8.w. .+ X O R 6.5.5.1.1.<.<.;.;.=.=.@.@.O.O. . .| u X X . 3 G L L L L v = X ",
"X X X . % q L ^ ^ ^ [  .@.@.%.%.%.=.=.;.;.1.1.4.4.6.6.8.6.> X . b 5.1.1.<.<.;.;.=.=.@.@.O.O. . .| | | ! : . X O q L L L L v = X ",
"X X X 3 b ^ ^ ^ ^ ^ [  .@.@.@.%.%.%.%.=.=.;.;.1.1.4.4.6.8.q X X q 3.<.<.;.;.=.=.@.@.O.O. . .| | | | [ [ g + X . = M L L L v = X ",
"X X q W ^ ^ ^ ^ ^ ^ ^ [  .@.@.@.@.%.%.%.%.=.=.;.;.1.1.4.4.k . X > 3.;.;.=.=.@.@.O.O. . .| | | | [ [ ' ' ! 1 . X X 3 L L L v = X ",
"X = A ^ ^ ^ ^ ^ ^ ^ ^ [ [  . .@.@.@.@.%.%.%.%.=.=.;.;.1.1.L X X # ' =.=.@.@.O.O. . .| | | | [ [ ' ' ! ! U m % X X + u L L v = X ",
"X : A ^ ^ ^ ^ ^ ^ ^ ^ ^ ^ [ [  . .@.@.@.@.%.%.%.%.=.=.;.;.[ % X X A @.@.O.O. . .| | | | [ [ ' ' ! ! U U G G 8 X X . ; A L v = X ",
"X : A ^ ^ ^ ^ ^ ^ ^ ^ ^ ^ ^ ^ [ [  . .@.@.@.@.%.%.%.%.=.=.1.> X . s O.O. . .| | | | [ [ ' ' ! ! U U G G G G A : . X X 7 L v = X ",
"X : A ^ ^ ^ ^ ^ ^ ^ ^ ^ ^ ^ ^ ^ ^ [ [  . .@.@.@.@.%.%.%.%.-.8 X X 7 o. .| | | | [ [ ' ' ! ! U U G G G G G G G s # X X + s v = X ",
"X : A ^ ^ ^ ^ ^ ^ ^ ^ ^ ^ ^ ^ ^ ^ ^ ^ [ [  . .@.@.@.@.%.%.%.h . X = _ | | | [ [ ' ' ! ! U U G G G G G G G G G G 7 X X . : h = X ",
"X : A ^ ^ ^ ^ ^ ^ ^ ^ ^ ^ ^ ^ ^ ^ ^ ^ ^ ^ [ [  . .@.@.@.@.%.B X X O A | [ [ ' ' ! ! U U G G G G G G G G G G G G B ; . X X 3 = X ",
"X : A ^ ^ ^ ^ ^ ^ ^ ^ ^ ^ ^ ^ ^ ^ ^ ^ ^ ^ ^ ^ [ [  . .@.@.@.T % X X p [ ' ' ! ! U U G G G G G G G G G G G G G G G u + X X + % X ",
"X : A ^ ^ ^ ^ ^ ^ ^ ^ ^ ^ ^ ^ ^ ^ ^ ^ ^ ^ ^ ^ ^ ^ [ [  . .@.| : X . 5 ' ! ! U U G G G G G G G G G G G G G G G G G G 4 X X . O X ",
"X = h A A A A A A A A A A A A A A A A A A A A A A A A G G U U 4 . X % b b b z z z z z z z z z z z z z z z z z z z z p % . X . X ",
"X O = : : : : : : : : : : : : : : : : : : : : : : : : : : > > % . X X % = = = = = = = = = = = = = = = = = = = = = = = % . X . X ",
"X X X X X X X X X X X X X X X X X X X X X X X X X X X X X X X X X X X X X X X X X X X X X X X X X X X X X X X X X X X X X X X X "
};
